<?xml version="1.0" encoding="UTF-8"?>
<svg xmlns="http://www.w3.org/2000/svg" xmlns:xlink="http://www.w3.org/1999/xlink" width="854" height="480" viewBox="0 0 854 480">
<defs>
<g>
<g id="glyph-0-0">
<path d="M 0.0546875 -0.0898438 C 0.238281 -0.109375 0.359375 -0.144531 0.414062 -0.1875 C 0.46875 -0.234375 0.496094 -0.351562 0.496094 -0.542969 L 0.496094 -2.765625 C 0.496094 -2.945312 0.46875 -3.058594 0.414062 -3.113281 C 0.359375 -3.167969 0.242188 -3.203125 0.0546875 -3.214844 L 0.0546875 -3.308594 L 1.46875 -3.308594 L 1.46875 -3.214844 C 1.285156 -3.207031 1.164062 -3.175781 1.101562 -3.125 C 1.039062 -3.074219 1.007812 -2.964844 1.007812 -2.800781 L 1.007812 -0.398438 C 1.007812 -0.34375 1.015625 -0.300781 1.035156 -0.265625 C 1.054688 -0.234375 1.09375 -0.214844 1.15625 -0.207031 C 1.195312 -0.203125 1.234375 -0.199219 1.277344 -0.199219 C 1.316406 -0.195312 1.394531 -0.195312 1.507812 -0.195312 C 1.953125 -0.195312 2.253906 -0.230469 2.410156 -0.304688 C 2.566406 -0.378906 2.71875 -0.566406 2.863281 -0.867188 L 2.992188 -0.867188 L 2.746094 0 L 0.0546875 0 Z "/>
</g>
<g id="glyph-0-1">
<path d="M 0.125 -1.132812 C 0.125 -1.457031 0.230469 -1.730469 0.4375 -1.953125 C 0.640625 -2.179688 0.90625 -2.289062 1.230469 -2.289062 C 1.554688 -2.289062 1.820312 -2.183594 2.03125 -1.972656 C 2.242188 -1.761719 2.347656 -1.480469 2.347656 -1.128906 C 2.347656 -0.804688 2.246094 -0.523438 2.039062 -0.28125 C 1.835938 -0.0429688 1.570312 0.0742188 1.246094 0.0742188 C 0.933594 0.0742188 0.667969 -0.0390625 0.453125 -0.269531 C 0.234375 -0.5 0.125 -0.785156 0.125 -1.132812 Z M 1.164062 -2.144531 C 1.035156 -2.144531 0.921875 -2.101562 0.828125 -2.015625 C 0.664062 -1.867188 0.582031 -1.613281 0.582031 -1.25 C 0.582031 -0.960938 0.648438 -0.691406 0.78125 -0.4375 C 0.910156 -0.1875 1.09375 -0.0625 1.324219 -0.0625 C 1.507812 -0.0625 1.648438 -0.148438 1.746094 -0.316406 C 1.84375 -0.484375 1.894531 -0.703125 1.894531 -0.972656 C 1.894531 -1.253906 1.832031 -1.519531 1.707031 -1.769531 C 1.582031 -2.019531 1.398438 -2.144531 1.164062 -2.144531 Z "/>
</g>
<g id="glyph-0-2">
<path d="M 1.242188 -2.300781 C 1.445312 -2.300781 1.621094 -2.25 1.769531 -2.144531 C 1.917969 -2.039062 1.988281 -1.925781 1.988281 -1.800781 C 1.988281 -1.746094 1.972656 -1.695312 1.933594 -1.648438 C 1.894531 -1.601562 1.839844 -1.578125 1.761719 -1.578125 C 1.703125 -1.578125 1.652344 -1.597656 1.609375 -1.636719 C 1.566406 -1.675781 1.535156 -1.734375 1.515625 -1.808594 L 1.488281 -1.925781 C 1.464844 -2.011719 1.429688 -2.074219 1.375 -2.109375 C 1.324219 -2.144531 1.253906 -2.160156 1.164062 -2.160156 C 0.980469 -2.160156 0.824219 -2.078125 0.695312 -1.917969 C 0.566406 -1.757812 0.503906 -1.539062 0.503906 -1.273438 C 0.503906 -1.027344 0.574219 -0.804688 0.714844 -0.609375 C 0.855469 -0.414062 1.046875 -0.316406 1.285156 -0.316406 C 1.453125 -0.316406 1.605469 -0.371094 1.734375 -0.484375 C 1.808594 -0.546875 1.894531 -0.648438 1.988281 -0.785156 L 2.058594 -0.746094 C 1.964844 -0.550781 1.867188 -0.394531 1.765625 -0.28125 C 1.570312 -0.0625 1.339844 0.046875 1.082031 0.046875 C 0.828125 0.046875 0.601562 -0.0546875 0.40625 -0.253906 C 0.210938 -0.453125 0.113281 -0.726562 0.113281 -1.070312 C 0.113281 -1.40625 0.222656 -1.695312 0.433594 -1.9375 C 0.648438 -2.179688 0.917969 -2.300781 1.242188 -2.300781 Z "/>
</g>
<g id="glyph-0-3">
<path d="M 0.0078125 -0.0703125 C 0.164062 -0.0820312 0.269531 -0.105469 0.320312 -0.148438 C 0.367188 -0.1875 0.394531 -0.273438 0.394531 -0.410156 L 0.394531 -2.855469 C 0.394531 -2.972656 0.375 -3.046875 0.335938 -3.078125 C 0.296875 -3.109375 0.238281 -3.121094 0.164062 -3.121094 C 0.132812 -3.121094 0.109375 -3.121094 0.0859375 -3.121094 C 0.0625 -3.117188 0.0390625 -3.117188 0.0078125 -3.113281 L 0.0078125 -3.179688 L 0.230469 -3.238281 C 0.398438 -3.28125 0.539062 -3.324219 0.65625 -3.363281 C 0.726562 -3.386719 0.769531 -3.402344 0.78125 -3.402344 C 0.789062 -3.402344 0.796875 -3.398438 0.800781 -3.394531 C 0.800781 -3.390625 0.804688 -3.382812 0.804688 -3.367188 L 0.804688 -1.3125 L 1.480469 -1.910156 C 1.527344 -1.953125 1.5625 -1.988281 1.578125 -2.015625 C 1.59375 -2.039062 1.605469 -2.0625 1.605469 -2.082031 C 1.605469 -2.121094 1.585938 -2.144531 1.550781 -2.152344 C 1.511719 -2.164062 1.445312 -2.171875 1.351562 -2.175781 L 1.351562 -2.242188 L 2.371094 -2.242188 L 2.371094 -2.175781 C 2.1875 -2.164062 2.042969 -2.128906 1.929688 -2.066406 C 1.820312 -2.003906 1.609375 -1.832031 1.292969 -1.542969 L 1.148438 -1.410156 L 1.601562 -0.824219 C 1.832031 -0.523438 2.007812 -0.328125 2.125 -0.226562 C 2.242188 -0.128906 2.367188 -0.0742188 2.496094 -0.0625 L 2.496094 0 L 1.410156 0 L 1.410156 -0.0703125 L 1.496094 -0.0742188 C 1.523438 -0.0742188 1.550781 -0.0820312 1.570312 -0.0898438 C 1.59375 -0.101562 1.605469 -0.117188 1.605469 -0.140625 C 1.605469 -0.15625 1.601562 -0.171875 1.59375 -0.1875 C 1.585938 -0.203125 1.574219 -0.222656 1.558594 -0.242188 L 0.804688 -1.238281 L 0.804688 -0.335938 C 0.804688 -0.222656 0.84375 -0.148438 0.929688 -0.109375 C 0.976562 -0.0859375 1.058594 -0.0742188 1.179688 -0.0742188 L 1.179688 0 L 0.0078125 0 Z "/>
</g>
<g id="glyph-0-4">
<rect x="0" y="0" width="0" height="0" mask="url(#mask-0)"/>
</g>
<g id="glyph-0-5">
<path d="M 2.230469 -1.285156 L 1.652344 -2.660156 L 1.082031 -1.285156 Z M 0.0742188 0 L 0.0742188 -0.0898438 C 0.203125 -0.105469 0.296875 -0.152344 0.363281 -0.238281 C 0.425781 -0.320312 0.539062 -0.546875 0.695312 -0.914062 L 1.734375 -3.367188 L 1.832031 -3.367188 L 3.078125 -0.53125 C 3.160156 -0.34375 3.226562 -0.226562 3.277344 -0.183594 C 3.328125 -0.136719 3.410156 -0.105469 3.527344 -0.0898438 L 3.527344 0 L 2.257812 0 L 2.257812 -0.0898438 C 2.402344 -0.101562 2.496094 -0.121094 2.539062 -0.136719 C 2.582031 -0.15625 2.601562 -0.203125 2.601562 -0.277344 C 2.601562 -0.300781 2.59375 -0.34375 2.578125 -0.40625 C 2.5625 -0.46875 2.539062 -0.53125 2.507812 -0.601562 L 2.300781 -1.082031 L 0.992188 -1.082031 C 0.863281 -0.753906 0.785156 -0.554688 0.761719 -0.480469 C 0.734375 -0.410156 0.722656 -0.351562 0.722656 -0.308594 C 0.722656 -0.226562 0.757812 -0.167969 0.824219 -0.132812 C 0.867188 -0.113281 0.945312 -0.101562 1.0625 -0.0898438 L 1.0625 0 Z "/>
</g>
</g>
<image id="source-29" x="0" y="0" width="0" height="0"/>
<mask id="mask-0">
<use xlink:href="#source-29"/>
</mask>
</defs>
<g fill="rgb(96.862745%, 85.098039%, 43.529412%)" fill-opacity="1">
<use xlink:href="#glyph-0-0" x="30" y="23.75"/>
<use xlink:href="#glyph-0-1" x="33" y="23.75"/>
<use xlink:href="#glyph-0-2" x="36" y="23.75"/>
<use xlink:href="#glyph-0-3" x="38" y="23.75"/>
<use xlink:href="#glyph-0-4" x="41" y="23.75"/>
<use xlink:href="#glyph-0-5" x="42" y="23.75"/>
</g>
</svg>
