<svg width="359" height="297" viewBox="0 0 359 297" fill="none" xmlns="http://www.w3.org/2000/svg">
<path d="M80.4903 94.724L111.877 24.6315C112.038 24.2718 112.395 24.0402 112.789 24.0402H122.436C122.989 24.0402 123.436 23.5925 123.436 23.0402V6.33946C123.436 5.98181 123.627 5.65139 123.937 5.4729L126.124 4.21334C126.559 3.96319 127.111 4.07323 127.417 4.47071L151.217 35.4541L198.142 96.8659L256.7 172.373C257.165 172.972 256.819 173.851 256.07 173.973L219.566 179.893C219.513 179.902 219.459 179.906 219.406 179.906H124.52C123.967 179.906 123.52 179.459 123.52 178.906V174.703C123.52 174.151 123.072 173.703 122.52 173.703H113.719L30.9992 172.53C30.209 172.519 29.7435 171.638 30.1787 170.979L80.4122 94.8661C80.442 94.8209 80.4681 94.7734 80.4903 94.724Z" fill="#E8FBFF" stroke="#CEEDF2"/>
<path d="M2.13818 223.195V212.897C2.13818 212.345 2.58579 211.897 3.13801 211.897L246.901 211.856C247.453 211.856 247.901 212.303 247.901 212.856V214.134C247.901 214.432 247.768 214.715 247.538 214.905L222.164 235.877C222.119 235.913 222.072 235.946 222.022 235.975L197.408 249.989C197.333 250.031 197.253 250.064 197.171 250.086L165.564 258.517C165.48 258.539 165.393 258.55 165.306 258.55H51.7589C51.6644 258.55 51.5703 258.537 51.4795 258.511L33.7458 253.35C33.6353 253.318 33.5312 253.267 33.438 253.2L17.31 241.502C17.2444 241.454 17.1849 241.399 17.1327 241.337L2.3738 223.84C2.22164 223.659 2.13818 223.431 2.13818 223.195Z" fill="#7E4B31" stroke="#5D3520"/>
<path d="M276.806 191.027L254.712 175.252C253.997 174.741 254.24 173.623 255.103 173.456L255.22 173.433C255.484 173.382 255.757 173.44 255.978 173.593L278.457 189.141C279.083 189.574 279.015 190.52 278.334 190.859L277.832 191.109C277.501 191.273 277.106 191.242 276.806 191.027Z" fill="#575757" stroke="#363636"/>
<path d="M29.0961 172.044L2.00796 201.997C1.42764 202.638 1.88298 203.664 2.74816 203.664C3.02322 203.664 3.28609 203.55 3.47468 203.35L31.6809 173.4C32.2818 172.762 31.8294 171.715 30.9529 171.715H29.8378C29.5551 171.715 29.2857 171.834 29.0961 172.044Z" fill="#575757"/>
<path d="M23.0176 242.986H50.3487C51.3464 242.986 51.7289 241.686 50.8901 241.145L32.3693 229.219C32.2078 229.115 32.0199 229.06 31.8279 229.06H12.5401C11.6801 229.06 11.2212 230.073 11.7889 230.72L22.2664 242.646C22.4562 242.862 22.73 242.986 23.0176 242.986Z" fill="#72452D"/>
<path d="M52.0235 256.48L86.1583 256.801C87.3836 256.813 87.5508 255.034 86.3448 254.817L77.121 253.157C77.0273 253.14 76.9366 253.11 76.8515 253.067L60.9311 245.121C60.7957 245.053 60.6467 245.017 60.4953 245.015L27.7915 244.662C26.7831 244.651 26.3945 245.971 27.2477 246.508L35.7631 251.873C35.844 251.924 35.9318 251.963 36.0238 251.989L51.7606 256.442C51.8462 256.467 51.9346 256.479 52.0235 256.48Z" fill="#72452D"/>
<path d="M54.855 242.8L35.831 229.247C35.0367 228.681 35.4395 227.429 36.4148 227.432L224.383 228.1C225.348 228.103 225.749 229.336 224.971 229.907L207.387 242.792C207.215 242.918 207.008 242.986 206.796 242.986H55.4352C55.2272 242.986 55.0244 242.921 54.855 242.8Z" fill="#9F5E3B"/>
<path d="M81.6246 251.682C77.5903 250.028 70.5961 247.123 67.1884 245.596C66.4048 245.245 66.5596 244.624 67.4184 244.624H195.675C196.814 244.624 197.067 246.225 195.982 246.576L183.128 250.727L162.112 255.251C162.043 255.266 161.972 255.274 161.902 255.274H103.217C103.162 255.274 103.108 255.269 103.054 255.26L81.8377 251.742C81.7638 251.73 81.6939 251.711 81.6246 251.682Z" fill="#9F5E3B"/>
<path d="M24.9187 215.127L6.78967 213.609C6.11179 213.552 5.57631 214.174 5.73322 214.836L8.14556 225.013C8.25245 225.464 8.65516 225.782 9.11859 225.782H29.1885C29.9329 225.782 30.4163 224.998 30.082 224.333L25.7287 215.674C25.5724 215.363 25.2656 215.156 24.9187 215.127Z" fill="#72452D"/>
<path d="M32.4194 225.231L28.257 216.944C27.924 216.282 28.4033 215.5 29.145 215.496L240.637 214.326C241.518 214.322 241.974 215.377 241.367 216.016L232.373 225.472C232.185 225.67 231.923 225.782 231.649 225.782H33.313C32.9349 225.782 32.5891 225.569 32.4194 225.231Z" fill="#9F5E3B"/>
<path d="M12.6353 203.285V185.822C12.6353 185.27 13.083 184.822 13.6353 184.822H99.7823C100.335 184.822 100.782 185.27 100.782 185.822V203.284C100.782 203.836 101.231 204.284 101.784 204.284L248.588 204.071C248.738 204.071 248.886 204.037 249.022 203.971L286.851 185.659C287.157 185.511 287.517 185.528 287.807 185.705L290.02 187.054C290.318 187.235 290.5 187.559 290.5 187.908V190.824C290.5 191.208 290.28 191.558 289.933 191.725L248.273 211.757C248.138 211.822 247.99 211.856 247.84 211.856H1.5C0.947715 211.856 0.5 211.408 0.5 210.856V205.285C0.5 204.733 0.947715 204.285 1.5 204.285H11.6353C12.1876 204.285 12.6353 203.837 12.6353 203.285Z" fill="#7E4B31" stroke="#5D3520"/>
<path d="M115.38 4.77129L114.375 202.658C114.372 203.213 114.821 203.663 115.375 203.663H122.381C122.934 203.663 123.381 203.216 123.381 202.663V4.77637C123.381 4.22408 122.934 3.77637 122.381 3.77637H116.38C115.83 3.77637 115.383 4.22099 115.38 4.77129Z" fill="#7E4B31" stroke="#5D3520"/>
<path d="M109.474 6.88276C109.46 5.10529 109.447 2.69981 109.459 1.39588C109.464 0.885102 109.87 0.5 110.38 0.5H128.935C129.487 0.5 129.935 0.947715 129.935 1.5V6.87288C129.935 7.42517 129.487 7.87288 128.935 7.87288H110.473C109.925 7.87288 109.478 7.4314 109.474 6.88276Z" fill="#7E4B31" stroke="#5D3520"/>
<path d="M352.612 286.33C352.612 295.429 355.138 301.028 357.665 291.229" stroke="#5D5D5D"/>
<path d="M233.688 174.216C232.826 179.346 220.648 184.47 209.894 188.722C204.967 190.416 196.296 192.371 192.926 185.327C188.363 175.792 202.715 169.937 216.239 164.278C224.753 160.716 229.216 158.508 232.213 156.098C232.917 155.532 234.205 156.054 234.229 156.951C234.362 161.857 234.579 168.913 233.688 174.216Z" fill="#0D0C52"/>
<path d="M198.007 195.846L198.052 198.636C198.052 198.953 197.795 199.21 197.478 199.21H194.442C193.89 199.21 193.442 198.762 193.442 198.21L193.442 196.425C193.442 195.955 193.769 195.549 194.228 195.448L196.793 194.885C197.41 194.75 197.997 195.214 198.007 195.846Z" fill="#FA7325"/>
<rect width="100.955" height="3.11778" rx="1" transform="matrix(0.708307 -0.705905 0.709414 0.704792 219.44 166.815)" fill="#7E2B0A"/>
<rect width="32.0969" height="5.53399" rx="1" transform="matrix(0.708307 -0.705905 0.709414 0.704792 202.669 182.131)" fill="#56280E"/>
<ellipse cx="222.954" cy="168.935" rx="6.45306" ry="7.33839" fill="#B1D3E2"/>
<path d="M223.957 176.986C223.574 176.896 223.284 176.582 223.226 176.192L222.479 171.17C222.395 170.601 222.808 170.078 223.382 170.028L223.751 169.996C224.312 169.948 224.803 170.372 224.836 170.935L225.133 175.997C225.17 176.637 224.581 177.132 223.957 176.986Z" fill="#96C2DB"/>
<ellipse cx="223.874" cy="177.19" rx="2.7656" ry="2.7519" fill="#A9CBDC"/>
<path d="M227.56 164.643C233.772 161.548 246.036 153.457 246.992 145.183C247.048 144.7 247.401 144.294 247.877 144.191C258.495 141.895 268.782 126.716 272.842 118.943C272.947 118.741 273.108 118.59 273.314 118.495C279.082 115.837 290.218 108.76 292.125 100.087C292.223 99.6439 292.586 99.2921 293.039 99.2782C325.292 98.2946 351.235 248.804 352.634 287.805" stroke="black"/>
<path d="M179.967 197.375H183.272C183.766 197.375 184.171 197.766 184.188 198.26C184.207 198.779 183.791 199.21 183.272 199.21H180.612C180.06 199.21 179.612 198.762 179.612 198.209L179.613 197.73C179.613 197.534 179.771 197.375 179.967 197.375Z" fill="#F87426"/>
<path d="M189.928 149.817C195.625 141.628 203.006 145.886 206.112 149.152C206.196 149.24 206.294 149.307 206.377 149.395C207.406 150.486 208.553 157.707 208.902 161.709C208.907 161.762 208.916 161.813 208.929 161.865L209.39 163.703C209.426 163.843 209.491 163.974 209.581 164.086L211.582 166.576C211.582 166.576 213.989 170.3 215.058 173.226C219.977 194.507 198.572 197.73 187.255 197.375L160.586 198.646C159.688 198.688 159.192 197.62 159.809 196.966C169.409 186.797 186.046 169.436 187.255 169.236C188.479 169.033 188.989 167.684 189.111 166.945C189.122 166.876 189.123 166.809 189.117 166.739C188.847 163.509 188.324 156.932 188.324 155.669C188.324 154.073 188.859 151.679 189.928 149.817Z" fill="white"/>
<path d="M166.083 175.108C167.81 170.953 178.706 169.286 188.274 168.045C192.606 167.692 200.025 167.938 201.346 174.643C203.133 183.719 190.329 185.528 178.234 187.353C170.959 188.451 166.928 189.312 164.044 190.593C163.216 190.961 162.074 190.14 162.259 189.258C163.13 185.093 164.348 179.284 166.083 175.108Z" fill="#1C1A86"/>
<path d="M189.261 181.456C192.185 180.953 194.381 180.113 196.007 179.113C196.982 178.513 200.467 179.582 199.854 180.531C198.203 183.086 195.323 184.654 193.285 185.337L186.03 187.257L172.298 189.705C171.118 189.948 167.927 191.301 166.165 191.976C165.454 192.249 164.88 192.114 164.394 191.929C164.032 191.792 163.16 190.814 162.909 191.057C162.689 191.271 162.08 191.287 162.178 190.994C163.835 186.03 166.946 185.388 169.916 184.805C172.291 184.39 179.485 183.139 189.261 181.456Z" fill="#2E3CE0"/>
<ellipse cx="4.01009" cy="3.99022" rx="4.01009" ry="3.99022" transform="matrix(-1 0 0 1 201.692 149.551)" fill="#DEE2FA"/>
<ellipse cx="2.40605" cy="2.39413" rx="2.40605" ry="2.39413" transform="matrix(-1 0 0 1 200.087 151.147)" fill="#000944"/>
<path d="M216.769 160.723C219.267 159.946 221.822 160.824 223.54 161.803C224.23 162.196 225.188 161.802 225.209 161.007C225.382 154.491 221.188 152.412 216.769 151.679C214.43 151.291 211.637 150.556 209.385 149.94C208.411 149.673 206.999 151.317 206.969 152.326C206.944 153.169 206.77 154.189 206.342 155.403C204.927 159.427 206.109 161.232 206.995 161.717C207.091 161.769 207.2 161.79 207.31 161.795C209.188 161.87 213.448 161.756 216.769 160.723Z" fill="#FF9531"/>
<path d="M220.136 157.649C222.249 157.772 223.471 158.911 224.159 160.191C224.604 161.017 223.422 161.798 222.542 161.47C221.865 161.218 221.062 160.994 220.136 160.841C217.57 160.415 213.453 161.787 208.908 161.787H207.355C207.148 161.787 206.945 161.724 206.789 161.588C206.403 161.249 205.7 160.516 205.7 159.659C205.7 158.478 205.7 157.531 205.967 157.531C206.235 157.531 216.5 157.436 220.136 157.649Z" fill="#F97526"/>
</svg>
