<svg width="30" height="20" viewBox="0 0 30 20" fill="none" xmlns="http://www.w3.org/2000/svg">
<path d="M22.5678 16.5461C20 17 20 18.0461 16.0678 19.5461C12.5678 20.0461 6.06778 20.5461 1.56779 18.0461C-2.03221 16.0461 1.40112 16.2128 3.56779 16.5461C4.90112 16.3795 7.26779 15.4461 6.06778 13.0461C1.66778 7.84616 3.90112 3.21274 5.56778 1.54602C7.06778 0.379358 10.1678 -1.25398 10.5678 1.54602C8.96784 8.34603 11.2344 12.0461 12.5677 13.0461C12.2344 11.5462 11.9677 7.64621 13.5677 4.04622C15.5677 -0.453785 18.0678 1.04622 17.0678 2.04622C16.0678 3.04622 12.0678 14.0462 16.0678 15.0461C20.0678 16.0461 18.0678 14.5461 22.5678 13.0461C27.0678 11.5461 26.0678 15.0461 27.5678 15.0461C28.7678 15.0461 29.4011 16.0461 29.5678 16.5461C28.0678 16.5461 25.1355 16.0922 22.5678 16.5461Z" fill="#2B2B2B"/>
</svg>
