<svg width="96" height="64" viewBox="0 0 96 64" fill="none" xmlns="http://www.w3.org/2000/svg">
<path d="M13.8103 25.6927C17.283 11.3635 32.6055 10.6735 35.0139 12.2405C36.8597 8.11666 48.3749 -6.74707 71.1124 3.58819C80.755 9.52206 83.1193 19.0665 83.1468 24.0119C83.1506 24.6862 83.4353 25.3311 83.9587 25.7562C93.7786 33.7329 105.647 51.2365 80.5182 62.9017C80.2592 63.0219 79.9632 63.0881 79.6777 63.0881H17.5554C17.2561 63.0881 16.972 63.0201 16.7011 62.8929C9.7302 59.6182 2.96911 58.0154 0.0477588 45.0852C-0.0020424 44.8648 -0.0132413 44.6292 0.0159754 44.4051C0.943187 37.2936 2.84864 32.9503 12.8261 27.047C13.3219 26.7536 13.6746 26.2525 13.8103 25.6927Z" fill="white"/>
</svg>
