<svg width="262" height="311" viewBox="0 0 262 311" fill="none" xmlns="http://www.w3.org/2000/svg">
<path d="M254.853 240.826C242.237 298.679 181.375 312.788 154.851 310.661H19.7223L10.7615 244.725C69.9027 244.725 241.986 239.726 254.853 240.826Z" fill="#7E2B0A"/>
<path d="M261.946 233.896C248.407 297.473 183.093 312.978 154.629 310.641H9.61624L0 238.181C63.4672 238.181 221.33 229.47 261.946 233.896Z" fill="#CF721E"/>
<path d="M254.853 240.826C242.237 298.679 181.375 312.788 154.851 310.661H19.7223L10.7615 244.725C69.9027 244.725 241.986 239.726 254.853 240.826Z" fill="#7E2B0A"/>
<path d="M65.0586 240.668C105.61 230.587 241.33 233.47 246.008 237.6C248.762 237.6 110.838 240.668 65.0586 240.668Z" fill="#6C1F07"/>
<path d="M251.185 243.368C241.533 263.414 246.798 263.414 228.372 263.414H17.7963L15.1641 248.61C74.263 248.61 238.327 243.094 251.185 243.368Z" fill="#A84A14"/>
<path d="M238.956 266.119C229.296 286.282 216.124 285.421 197.684 285.421H22.9347L20.3003 269.633C79.4487 269.633 226.087 265.843 238.956 266.119Z" fill="#56280E"/>
<path d="M206.426 288.162C204.671 298.646 160.776 304.748 157.264 304.748H27.3363L24.7026 288.947C83.8347 288.947 193.561 287.888 206.426 288.162Z" fill="#57200C"/>
<rect x="30.0835" width="15.6532" height="242.38" fill="#CF721E"/>
<path d="M165.838 24.9976L43.3599 4.76868C39.0963 4.06448 35.2192 7.35369 35.2192 11.6751V66.3363C35.2192 70.9746 39.6485 74.3304 44.1137 73.0751L166.592 38.6428C173.798 36.617 173.223 26.2174 165.838 24.9976Z" fill="#FF1F1F"/>
</svg>
