<svg width="447" height="398" viewBox="0 0 447 398" fill="none" xmlns="http://www.w3.org/2000/svg">
<path d="M437.135 379.405C437.135 395.639 441.642 405.629 446.149 388.146" stroke="#5D5D5D"/>
<path d="M153.234 235.271V218.801L161.322 217.428V228.866H168.46C172.266 228.866 174.169 233.136 174.645 235.271H153.234Z" fill="#FA7325"/>
<path d="M130.038 235.271V219.671V219.212H137.951V228.848H145.398C149.867 228.848 151.294 233.13 151.449 235.271H130.038Z" fill="#F87426"/>
<path d="M224.94 179.36C223.401 188.514 201.672 197.656 182.485 205.243C173.694 208.265 158.222 211.754 152.208 199.186C144.067 182.172 169.674 171.726 193.805 161.628C210.583 154.608 218.545 150.536 223.903 145.67C224.569 145.066 225.829 145.569 225.851 146.467C226.064 155.206 226.661 169.116 224.94 179.36Z" fill="#0D0C52"/>
<rect width="180.132" height="5.56301" rx="1" transform="matrix(0.708307 -0.705905 0.709414 0.704792 199.518 166.156)" fill="#7E2B0A"/>
<rect width="57.2699" height="9.8742" rx="1" transform="matrix(0.708307 -0.705905 0.709414 0.704792 169.593 193.483)" fill="#56280E"/>
<ellipse cx="205.787" cy="169.939" rx="11.5141" ry="13.0938" fill="#B1D3E2"/>
<path d="M207.105 184.194C206.706 184.1 206.404 183.772 206.343 183.366L204.818 173.103C204.733 172.533 205.146 172.01 205.72 171.96L208.012 171.763C208.573 171.714 209.064 172.139 209.097 172.701L209.73 183.49C209.77 184.157 209.156 184.674 208.505 184.521L207.105 184.194Z" fill="#96C2DB"/>
<ellipse cx="207.429" cy="184.668" rx="4.93461" ry="4.91016" fill="#A9CBDC"/>
<path d="M214.004 162.28C225.254 156.676 247.623 141.89 248.74 126.899C248.776 126.414 249.129 126.009 249.607 125.919C268.892 122.29 287.689 94.4467 294.926 80.4965C295.03 80.295 295.188 80.1464 295.394 80.0524C305.74 75.3434 326.288 62.374 329.329 46.5022C329.415 46.0568 329.781 45.7078 330.234 45.6791C388.062 42.0118 434.667 312.202 437.173 382.036" stroke="black"/>
<path d="M146.859 135.826C157.085 121.128 170.35 128.904 175.834 134.745C175.917 134.834 176.014 134.899 176.107 134.977C177.973 136.544 180.092 149.847 180.72 157.107C180.725 157.16 180.733 157.211 180.746 157.263L181.627 160.77C181.662 160.91 181.727 161.04 181.818 161.153L185.497 165.729C185.497 165.729 189.79 172.374 191.698 177.595C200.475 215.566 162.282 221.316 142.089 220.684L92.5666 223.043C91.6683 223.086 91.172 222.017 91.7889 221.363C108.661 203.467 139.876 170.842 142.089 170.475C144.318 170.106 145.221 167.606 145.414 166.307C145.424 166.238 145.425 166.171 145.42 166.102C144.94 160.367 143.997 148.533 143.997 146.268C143.997 143.42 144.951 139.149 146.859 135.826Z" fill="white"/>
<path d="M104.313 180.953C107.394 173.538 126.837 170.565 143.908 168.35C151.638 167.72 164.876 168.16 167.232 180.123C170.421 196.317 147.574 199.545 125.994 202.801C111.342 205.012 104.067 206.686 98.7817 209.505C97.9872 209.929 96.8717 209.141 97.0578 208.259C98.6342 200.793 100.919 189.122 104.313 180.953Z" fill="#1C1A86"/>
<path d="M145.67 192.28C155.051 190.665 160.234 187.107 162.855 183.438C163.512 182.519 166.932 182.88 166.838 184.041C166.144 192.595 157.993 197.48 152.849 199.203L139.904 202.629L115.403 206.997C113.297 207.432 107.604 209.845 104.459 211.05C103.191 211.536 102.167 211.295 101.299 210.966C100.654 210.721 99.0969 208.976 98.65 209.411C98.2576 209.792 97.1704 209.821 97.3452 209.298C100.303 200.441 105.853 199.295 111.152 198.254C115.39 197.513 128.226 195.282 145.67 192.28Z" fill="#2E3CE0"/>
<ellipse cx="7.15513" cy="7.11968" rx="7.15513" ry="7.11968" transform="matrix(-1 0 0 1 167.85 135.351)" fill="#DEE2FA"/>
<ellipse cx="4.29308" cy="4.2718" rx="4.29308" ry="4.2718" transform="matrix(-1 0 0 1 164.986 138.199)" fill="#000944"/>
<path d="M194.751 155.285C199.854 153.699 205.09 155.98 208.065 157.973C208.725 158.415 209.673 158.03 209.734 157.238C210.723 144.468 202.954 140.508 194.751 139.147C189.586 138.291 183.179 136.486 178.898 135.307C177.925 135.04 176.795 136.557 177.018 137.541C177.435 139.379 177.455 142.073 176.147 145.792C173.56 153.149 175.836 156.348 177.426 157.117C177.525 157.165 177.631 157.187 177.741 157.191C181.02 157.336 188.746 157.152 194.751 155.285Z" fill="#FF9531"/>
<path d="M200.759 149.8C205.625 150.084 207.843 153.385 208.782 156.352C209.065 157.247 207.886 157.939 207.054 157.504C205.547 156.715 203.443 155.94 200.759 155.495C196.18 154.736 188.834 157.184 180.725 157.184H177.704C177.497 157.184 177.296 157.121 177.135 156.99C176.523 156.489 175.001 155.072 175.001 153.387C175.001 151.279 175.001 149.589 175.478 149.59C175.955 149.59 194.272 149.42 200.759 149.8Z" fill="#F97526"/>
<path d="M254.853 240.826C242.237 298.679 181.375 312.788 154.851 310.661H19.7223L10.7615 244.725C69.9027 244.725 241.986 239.726 254.853 240.826Z" fill="#7E2B0A"/>
<path d="M261.946 233.896C248.407 297.473 183.093 312.978 154.629 310.641H9.61624L0 238.181C63.4672 238.181 221.33 229.47 261.946 233.896Z" fill="#CF721E"/>
<path d="M254.853 240.826C242.237 298.679 181.375 312.788 154.851 310.661H19.7223L10.7615 244.725C69.9027 244.725 241.986 239.726 254.853 240.826Z" fill="#7E2B0A"/>
<path d="M65.0586 240.668C105.61 230.587 241.33 233.47 246.008 237.6C248.762 237.6 110.838 240.668 65.0586 240.668Z" fill="#6C1F07"/>
<path d="M251.185 243.368C241.533 263.414 246.798 263.414 228.372 263.414H17.7963L15.1641 248.61C74.263 248.61 238.327 243.094 251.185 243.368Z" fill="#A84A14"/>
<path d="M238.956 266.119C229.296 286.282 216.124 285.421 197.684 285.421H22.9347L20.3003 269.633C79.4487 269.633 226.087 265.843 238.956 266.119Z" fill="#56280E"/>
<path d="M206.426 288.162C204.671 298.646 160.776 304.748 157.264 304.748H27.3363L24.7026 288.947C83.8347 288.947 193.561 287.888 206.426 288.162Z" fill="#57200C"/>
<rect x="30.0835" width="15.6532" height="242.38" fill="#CF721E"/>
<path d="M165.838 24.9976L43.3599 4.76868C39.0963 4.06448 35.2192 7.35369 35.2192 11.6751V66.3363C35.2192 70.9746 39.6485 74.3304 44.1137 73.0751L166.592 38.6428C173.798 36.617 173.223 26.2174 165.838 24.9976Z" fill="#FF1F1F"/>
</svg>
