<svg width="123" height="144" viewBox="0 0 123 144" fill="none" xmlns="http://www.w3.org/2000/svg">
<mask id="path-1-outside-1_832_2605" maskUnits="userSpaceOnUse" x="33.5206" y="0" width="88" height="132" fill="black">
<rect fill="white" x="33.5206" width="88" height="132"/>
<path d="M34.5206 5C34.5206 3.89543 35.4161 3 36.5206 3H108.587C109.691 3 110.587 3.89543 110.587 5V128.636C110.587 129.741 109.691 130.636 108.587 130.636H36.5206C35.4161 130.636 34.5206 129.741 34.5206 128.636V5Z"/>
</mask>
<path d="M34.5206 5C34.5206 3.89543 35.4161 3 36.5206 3H108.587C109.691 3 110.587 3.89543 110.587 5V128.636C110.587 129.741 109.691 130.636 108.587 130.636H36.5206C35.4161 130.636 34.5206 129.741 34.5206 128.636V5Z" fill="#4E2814"/>
<path d="M33.5206 3C33.5206 1.34315 34.8638 0 36.5206 0H115.587C118.348 0 120.587 2.23858 120.587 5L100.587 6H36.5206C35.9683 6 35.5206 6 35.5206 6L33.5206 3ZM120.587 128.636C120.587 130.293 119.244 131.636 117.587 131.636H36.5206C34.8638 131.636 33.5206 130.293 33.5206 128.636H35.5206C35.5206 129.189 35.9683 129.636 36.5206 129.636H100.587C100.587 129.636 100.587 129.189 100.587 128.636H120.587ZM36.5206 131.636C34.8638 131.636 33.5206 130.293 33.5206 128.636V3C33.5206 1.34315 34.8638 0 36.5206 0V6C35.9683 6 35.5206 6 35.5206 6V128.636C35.5206 129.189 35.9683 129.636 36.5206 129.636V131.636ZM115.587 0C118.348 0 120.587 2.23858 120.587 5V128.636C120.587 130.293 119.244 131.636 117.587 131.636L100.587 129.636C100.587 129.636 100.587 129.189 100.587 128.636V6L115.587 0Z" fill="#4C2713" mask="url(#path-1-outside-1_832_2605)"/>
<path d="M106.008 8.1571H39.3488C37.7928 8.1571 36.8328 9.85581 37.6355 11.1888L104.295 121.891C105.34 123.627 108.008 122.886 108.008 120.859V10.1571C108.008 9.05254 107.113 8.1571 106.008 8.1571Z" fill="#24150D" fill-opacity="0.37"/>
<path d="M106.008 8.1571H91.9988C90.0862 8.1571 89.2646 10.584 90.7839 11.7458L104.793 22.459C106.109 23.4654 108.008 22.527 108.008 20.8703V10.1571C108.008 9.05254 107.113 8.1571 106.008 8.1571Z" fill="#321D12"/>
<rect x="48.7025" y="40.3884" width="46.4132" height="16.7603" rx="8" fill="#2D190E"/>
<rect x="113.915" y="3.75" width="7.52479" height="124.847" rx="3.7624" fill="#D9D9D9" stroke="#331708" stroke-width="1.5"/>
<mask id="path-7-outside-2_832_2605" maskUnits="userSpaceOnUse" x="0" y="11.6033" width="89" height="132" fill="black">
<rect fill="white" y="11.6033" width="89" height="132"/>
<path d="M1 16.6033C1 15.4987 1.89543 14.6033 3 14.6033H76.3554C77.4599 14.6033 78.3554 15.4987 78.3554 16.6033V140.24C78.3554 141.344 77.4599 142.24 76.3554 142.24H3C1.89543 142.24 1 141.344 1 140.24V16.6033Z"/>
</mask>
<path d="M1 16.6033C1 15.4987 1.89543 14.6033 3 14.6033H76.3554C77.4599 14.6033 78.3554 15.4987 78.3554 16.6033V140.24C78.3554 141.344 77.4599 142.24 76.3554 142.24H3C1.89543 142.24 1 141.344 1 140.24V16.6033Z" fill="#72452D"/>
<path d="M0 14.6033C0 12.9464 1.34315 11.6033 3 11.6033H83.3554C86.1168 11.6033 88.3554 13.8418 88.3554 16.6033L68.3554 17.6033H3C2.44772 17.6033 2 17.6033 2 17.6033L0 14.6033ZM88.3554 140.24C88.3554 141.896 87.0122 143.24 85.3554 143.24H3C1.34315 143.24 0 141.896 0 140.24H2C2 140.792 2.44772 141.24 3 141.24H68.3554C68.3554 141.24 68.3554 140.792 68.3554 140.24H88.3554ZM3 143.24C1.34315 143.24 0 141.896 0 140.24V14.6033C0 12.9464 1.34315 11.6033 3 11.6033V17.6033C2.44772 17.6033 2 17.6033 2 17.6033V140.24C2 140.792 2.44772 141.24 3 141.24V143.24ZM83.3554 11.6033C86.1168 11.6033 88.3554 13.8418 88.3554 16.6033V140.24C88.3554 141.896 87.0122 143.24 85.3554 143.24L68.3554 141.24C68.3554 141.24 68.3554 140.792 68.3554 140.24V17.6033L83.3554 11.6033Z" fill="#4C2713" mask="url(#path-7-outside-2_832_2605)"/>
<path d="M72.4876 19.7604H7.08486C5.53594 19.7604 4.57492 21.4452 5.36338 22.7785L70.7661 133.369C71.8021 135.12 74.4876 134.386 74.4876 132.35V21.7604C74.4876 20.6558 73.5921 19.7604 72.4876 19.7604Z" fill="#452718" fill-opacity="0.37"/>
<path d="M72.4876 19.7604H59.4927C57.6097 19.7604 56.7701 22.1252 58.2315 23.3126L71.2264 33.871C72.5334 34.933 74.4876 34.0028 74.4876 32.3188V21.7604C74.4876 20.6558 73.5922 19.7604 72.4876 19.7604Z" fill="#533525"/>
<rect x="16.4711" y="51.9917" width="46.4132" height="16.7603" rx="8" fill="#553321"/>
<rect x="80.3947" y="15.3533" width="7.52479" height="124.847" rx="3.7624" fill="#D9D9D9" stroke="#61402F" stroke-width="1.5"/>
</svg>
