<svg width="19" height="15" viewBox="0 0 19 15" fill="none" xmlns="http://www.w3.org/2000/svg">
<path d="M15.3613 4.37815C15.0811 4.92623 14.9268 5.46226 14.8533 5.89872C14.781 6.32814 14.7342 6.77089 14.7947 7.20212C14.9054 7.99143 15.4476 9.20742 17.3413 10.2582C19.0928 11.2301 18.7875 10.0536 17.9678 8.68662C17.2582 7.50312 17.1509 5.8947 17.3309 4.52656C17.5106 3.16135 15.988 3.15206 15.3613 4.37815Z" fill="#FF9531"/>
<path d="M11.1611 0C7.24638 0.477286 6.36648 2.35759 5.8878 3.39075L10.3039 2.91855C10.1829 2.13875 10.6779 0.491496 11.1611 0Z" fill="#050137"/>
<ellipse cx="7.62353" cy="5.12115" rx="7.62353" ry="5.12115" transform="matrix(-0.992649 0.121025 0.121025 0.992649 15.1684 2.09131)" fill="#3E98FF"/>
<path d="M15.7828 7.1649C15.8039 7.44866 7.69884 8.15051 7.69884 8.15051C7.76555 7.78957 8.16444 6.39367 7.46213 3.03065C11.6648 2.42995 15.576 4.37872 15.7828 7.1649Z" fill="#0A0079"/>
<path d="M15.7861 7.18397C15.7385 6.90361 7.6996 8.13064 7.6996 8.13064C7.85072 8.4648 5.83785 9.72627 5.96477 13.1574C12.4467 13.8986 16.2542 9.93661 15.7861 7.18397Z" fill="#2176D7"/>
<circle cx="1.45487" cy="1.45487" r="1.45487" transform="matrix(-0.992649 0.121025 0.121025 0.992649 5.46432 5.20801)" fill="white"/>
<circle cx="0.931118" cy="0.931118" r="0.931118" transform="matrix(-0.992649 0.121025 0.121025 0.992649 5.00777 5.79248)" fill="black"/>
<path d="M10.4507 10.97C7.87916 11.6209 6.74689 10.7751 6.44595 10.207L6.9175 9.35227C8.06983 9.25093 10.3999 9.40247 10.4507 10.97Z" fill="#050137"/>
<rect width="1.528" height="0.783146" rx="0.391573" transform="matrix(-0.955625 -0.294586 -0.294586 0.955625 1.69088 8.71436)" fill="#FF9531"/>
<rect x="1.76558" y="9.32959" width="1.528" height="0.783146" rx="0.391573" transform="rotate(148.965 1.76558 9.32959)" fill="#FF9531"/>
<rect width="2.85155" height="0.693047" rx="0.346523" transform="matrix(-0.997739 0.0672105 0.0672105 0.997739 5.29683 4.90283)" fill="#0B0041"/>
</svg>
