<svg width="349" height="344" viewBox="0 0 349 344" fill="none" xmlns="http://www.w3.org/2000/svg">
<path d="M64.2343 196.271V179.801L72.3231 178.428V189.866H79.4602C83.2667 189.866 85.1699 194.136 85.6457 196.271H64.2343Z" fill="#FA7325"/>
<path d="M41.0385 196.271V180.671V180.212H48.9514V189.848H56.3989C60.8673 189.848 62.2948 194.13 62.4499 196.271H41.0385Z" fill="#F87426"/>
<path d="M135.94 140.36C134.402 149.514 112.673 158.656 93.4855 166.243C84.6943 169.265 69.2231 172.754 63.2091 160.186C55.0677 143.172 80.675 132.726 104.806 122.628C121.584 115.608 129.546 111.536 134.904 106.67C135.569 106.066 136.829 106.569 136.851 107.467C137.064 116.206 137.662 130.116 135.94 140.36Z" fill="#0D0C52"/>
<rect width="180.132" height="5.56301" rx="1" transform="matrix(0.708307 -0.705905 0.709414 0.704792 110.519 127.156)" fill="#7E2B0A"/>
<rect width="57.2699" height="9.8742" rx="1" transform="matrix(0.708307 -0.705905 0.709414 0.704792 80.5935 154.483)" fill="#56280E"/>
<ellipse cx="116.788" cy="130.939" rx="11.5141" ry="13.0938" fill="#B1D3E2"/>
<path d="M118.106 145.194C117.706 145.1 117.404 144.772 117.344 144.366L115.818 134.103C115.734 133.533 116.147 133.01 116.721 132.96L119.013 132.763C119.574 132.714 120.065 133.139 120.098 133.701L120.731 144.49C120.77 145.157 120.156 145.674 119.505 145.521L118.106 145.194Z" fill="#96C2DB"/>
<ellipse cx="118.429" cy="145.668" rx="4.93461" ry="4.91016" fill="#A9CBDC"/>
<path d="M125.005 123.28C136.255 117.676 158.624 102.89 159.741 87.8995C159.777 87.4143 160.13 87.0088 160.608 86.9188C179.893 83.2901 198.689 55.4467 205.926 41.4965C206.031 41.295 206.188 41.1464 206.395 41.0524C216.741 36.3434 237.288 23.374 240.33 7.50223C240.416 7.05678 240.782 6.70783 241.234 6.67913C299.063 3.01181 345.667 273.202 348.173 343.036" stroke="black"/>
<path d="M57.8597 96.8261C68.086 82.1281 81.3508 89.9042 86.8344 95.7449C86.9176 95.8335 87.0144 95.8994 87.1075 95.9775C88.9738 97.5437 91.0926 110.847 91.7206 118.107C91.7252 118.16 91.7339 118.211 91.747 118.263L92.628 121.77C92.6632 121.91 92.7282 122.04 92.8186 122.153L96.4975 126.729C96.4975 126.729 100.791 133.374 102.699 138.595C111.475 176.566 73.283 182.316 53.0897 181.684L3.56725 184.043C2.66903 184.086 2.17271 183.017 2.78958 182.363C19.6621 164.467 50.8764 131.842 53.0897 131.475C55.3188 131.106 56.2217 128.606 56.4146 127.307C56.4248 127.238 56.426 127.171 56.4202 127.102C55.9405 121.367 54.9977 109.533 54.9977 107.268C54.9977 104.42 55.9517 100.149 57.8597 96.8261Z" fill="white"/>
<path d="M15.314 141.953C18.3949 134.538 37.8377 131.565 54.9084 129.35C62.6389 128.72 75.8769 129.16 78.2327 141.123C81.4218 157.317 58.5748 160.545 36.9943 163.801C22.3431 166.012 15.0678 167.686 9.78237 170.505C8.98789 170.929 7.87243 170.141 8.05853 169.259C9.63492 161.793 11.9195 150.122 15.314 141.953Z" fill="#1C1A86"/>
<path d="M56.6703 153.28C66.0515 151.665 71.2351 148.107 73.8557 144.438C74.5123 143.519 77.9324 143.88 77.8383 145.041C77.1443 153.595 68.9935 158.48 63.8499 160.203L50.9045 163.629L26.4033 167.997C24.2972 168.432 18.6044 170.845 15.4601 172.05C14.1915 172.536 13.1675 172.295 12.2996 171.966C11.6548 171.721 10.0976 169.976 9.65067 170.411C9.25826 170.792 8.1711 170.821 8.34587 170.298C11.3032 161.441 16.8533 160.295 22.1529 159.254C26.3906 158.513 39.2267 156.282 56.6703 153.28Z" fill="#2E3CE0"/>
<ellipse cx="7.15513" cy="7.11968" rx="7.15513" ry="7.11968" transform="matrix(-1 0 0 1 78.8508 96.3505)" fill="#DEE2FA"/>
<ellipse cx="4.29308" cy="4.2718" rx="4.29308" ry="4.2718" transform="matrix(-1 0 0 1 75.9865 99.1992)" fill="#000944"/>
<path d="M105.751 116.285C110.854 114.699 116.091 116.98 119.065 118.973C119.725 119.415 120.673 119.03 120.735 118.238C121.723 105.468 113.955 101.508 105.751 100.147C100.587 99.2908 94.18 97.4865 89.8989 96.3074C88.9261 96.0395 87.7958 97.5574 88.0191 98.5414C88.4362 100.379 88.4562 103.073 87.148 106.792C84.5604 114.149 86.8367 117.348 88.4271 118.117C88.5261 118.165 88.6317 118.187 88.7416 118.191C92.0209 118.336 99.7472 118.152 105.751 116.285Z" fill="#FF9531"/>
<path d="M111.76 110.8C116.626 111.084 118.844 114.385 119.783 117.352C120.066 118.247 118.887 118.939 118.055 118.504C116.548 117.715 114.443 116.94 111.76 116.495C107.18 115.736 99.8346 118.184 91.7254 118.184H88.7046C88.4976 118.184 88.2963 118.121 88.1362 117.99C87.5242 117.489 86.0013 116.072 86.0013 114.387C86.0013 112.279 86.0013 110.589 86.4783 110.59C86.9553 110.59 105.272 110.42 111.76 110.8Z" fill="#F97526"/>
</svg>
