<svg width="569" height="758" viewBox="0 0 569 758" fill="none" xmlns="http://www.w3.org/2000/svg">
<path d="M189.368 474.404C152.402 468.381 138.76 430.733 135.826 412.662C154.285 409.399 190.614 408.145 188.267 429.227C185.334 455.581 191.568 465.745 192.668 470.64C193.548 474.555 190.834 474.781 189.368 474.404Z" fill="url(#paint0_linear_832_5807)"/>
<path d="M287.486 467.27C283.686 445.068 272.951 432.579 268.058 429.11C239.132 422.894 182.662 414.193 188.188 429.11C193.714 444.027 199.413 452.382 201.572 454.695C213.229 480.28 255.106 496.758 284.032 496.324C307.172 495.977 308.352 492.132 306.05 490.253C302.884 489.242 294.739 483.228 287.486 467.27Z" fill="url(#paint1_linear_832_5807)"/>
<path d="M553.995 404.927C525.939 339.465 462.515 312.264 434.311 306.846L442.661 425.664C448.599 424.917 466.264 426.673 489.421 439.676C537.135 459.968 549.106 493.616 551.387 510.855C551.602 512.481 553.491 513.246 554.579 512.018C565.427 499.764 579.738 464.991 553.995 404.927Z" fill="url(#paint2_linear_832_5807)"/>
<path d="M476.081 226.527C462.346 201.14 436.389 186.769 425.128 182.757C421.805 184.398 399.873 187.681 338.729 187.681C360.439 197.748 397.62 236.376 413.497 254.431C416.451 256.984 429.669 263.842 458.912 270.845C518.727 281.787 531.096 268.474 529.804 260.449C517.619 259.72 489.817 251.914 476.081 226.527Z" fill="url(#paint3_linear_832_5807)"/>
<path d="M261.269 130.184C232.169 132.089 194.582 157.961 179.426 170.659C223.459 181.769 313.247 204.086 320.139 204.467C328.755 204.943 374.223 203.515 395.761 200.181C416.82 200.181 457.981 154.945 448.409 105.423C438.837 55.9011 459.417 41.6159 465.639 33.0448C471.861 24.4737 488.613 17.331 477.605 12.5693C466.596 7.80756 403.419 22.5689 365.129 66.853C326.84 111.137 297.644 127.803 261.269 130.184Z" fill="url(#paint4_linear_832_5807)"/>
<path d="M221.282 163.072C117.316 156.363 43.8131 228.46 19.2189 266.189C-1.74204 277.919 -0.9036 291.351 0.773276 297.22C2.11478 301.915 8.5987 308.679 11.673 311.474C9.99609 311.753 6.30697 314.157 4.96547 318.181C19.2189 376.872 146.661 420.471 162.592 422.147C175.336 423.489 184.112 427.178 186.907 428.855L189.422 431.37L273.266 428.017C283.606 427.178 315.523 421.812 360.463 407.056C420.831 407.726 421.949 451.493 414.962 473.292C400.983 513.895 347.868 523.453 306.089 530.971L305.126 531.144C292.55 531.144 273.098 535.001 245.597 543.721C174.33 569.713 180.199 617.504 178.522 641.818C177.181 661.27 185.23 666.692 189.422 666.971C191.937 661.102 190.26 655.904 207.029 635.111C223.798 614.317 268.235 608.001 288.357 607.442L331.118 594.027C323.013 597.381 305.462 612.976 300.096 648.526C293.388 692.963 313.511 717.278 313.511 721.47C313.511 725.662 343.694 769.261 349.563 755.007C337.825 726.5 352.079 697.155 352.917 692.124C353.588 688.1 383.939 635.67 399.031 609.958C414.962 586.481 421.669 565.52 435.923 542.044C449.854 519.099 510.544 432.209 463.591 322.373C409.093 218.407 350.402 163.072 221.282 163.072Z" fill="url(#paint5_linear_832_5807)"/>
<path d="M435.297 541.514C421.044 564.99 414.336 585.951 398.406 609.427C383.314 635.139 352.963 687.57 352.292 691.594C351.454 696.625 337.2 725.97 348.938 754.477C343.069 768.731 312.886 725.132 312.886 720.94C312.886 716.747 292.763 692.433 299.47 647.996C304.837 612.446 322.388 596.851 330.493 593.497L287.732 606.912C267.61 607.471 223.173 613.787 206.404 634.581C189.635 655.374 191.312 660.572 188.797 666.441C184.605 666.162 176.556 660.74 177.897 641.288C179.574 616.973 173.705 569.182 244.972 543.191C272.473 534.471 291.925 530.614 304.501 530.614C319.543 528.378 389.034 516.373 404.965 488.704C417.499 466.932 414.52 475.499 420.117 499.884C433.462 489.719 445.958 481.881 437.664 494.566C434.697 499.103 432.846 503.89 431.8 508.637C442.272 503.237 451.402 498.884 446.048 503.797C437.999 511.182 435.527 532.019 435.297 541.514Z" fill="url(#paint6_linear_832_5807)"/>
<path d="M317.412 255.914C282.318 233.902 248.99 241.815 236.713 248.522C229.126 275.489 215.359 329.751 220.987 331.065C226.615 332.379 231.609 337.636 233.402 340.1C234.644 342.974 241.845 350.53 260.716 357.758C302.762 368.6 325.137 344.754 331.069 331.476C336.449 332.571 351.926 329.422 370.797 308.068C389.669 286.713 386.661 281.375 382.799 281.375C380.316 283.154 373.363 286.221 365.417 284.249C355.485 281.785 361.279 283.428 317.412 255.914Z" fill="url(#paint7_linear_832_5807)"/>
<g filter="url(#filter0_d_832_5807)">
<path d="M11.673 311.471C9.99609 311.75 6.30697 314.154 4.96547 318.178C13.2636 352.347 58.6907 383.979 134.989 414.163C164.613 404.895 244.992 359.665 242.309 289.236C238.955 201.2 177.749 171.805 159.303 168.503C78.8132 188.626 33.5256 244.239 19.2189 266.186C-1.74204 277.916 -0.9036 291.348 0.773275 297.217C2.11478 301.913 8.5987 308.676 11.673 311.471Z" fill="url(#paint8_linear_832_5807)"/>
</g>
<ellipse cx="133.313" cy="269.116" rx="36.0528" ry="37.7297" fill="#FEFFEF"/>
<path d="M3.35352 301.815C15.0916 304.921 40.5802 315.975 48.6292 335.353C18.4454 322.31 3.35352 305.076 3.35352 301.815Z" fill="#FD9D33"/>
<path d="M160.979 269.224C160.979 285.49 145.927 300.138 131.223 300.138C116.519 300.138 105.643 286.952 105.643 270.685C105.643 254.419 119.651 239.771 134.355 239.771C149.059 239.771 160.979 252.957 160.979 269.224Z" fill="url(#paint9_linear_832_5807)"/>
<g filter="url(#filter1_d_832_5807)">
<path d="M107.308 118.113C94.9257 90.0001 154.741 58.3689 182.562 49.3052C190.358 45.4647 217.323 35.2028 262.815 24.8794C308.307 14.556 328.808 22.2531 332.476 35.6167C337.062 48.0614 331.101 70.6413 272.904 97.696C260.064 103.226 128.403 157.747 107.308 118.113Z" stroke="url(#paint10_linear_832_5807)" stroke-width="8"/>
</g>
<defs>
<filter id="filter0_d_832_5807" x="0" y="166.503" width="251.375" height="253.66" filterUnits="userSpaceOnUse" color-interpolation-filters="sRGB">
<feFlood flood-opacity="0" result="BackgroundImageFix"/>
<feColorMatrix in="SourceAlpha" type="matrix" values="0 0 0 0 0 0 0 0 0 0 0 0 0 0 0 0 0 0 127 0" result="hardAlpha"/>
<feOffset dx="5" dy="2"/>
<feGaussianBlur stdDeviation="2"/>
<feComposite in2="hardAlpha" operator="out"/>
<feColorMatrix type="matrix" values="0 0 0 0 0.716365 0 0 0 0 0.592252 0 0 0 0 0.296862 0 0 0 0.17 0"/>
<feBlend mode="normal" in2="BackgroundImageFix" result="effect1_dropShadow_832_5807"/>
<feBlend mode="normal" in="SourceGraphic" in2="effect1_dropShadow_832_5807" result="shape"/>
</filter>
<filter id="filter1_d_832_5807" x="85.5406" y="9.72748e-05" width="268.259" height="152.55" filterUnits="userSpaceOnUse" color-interpolation-filters="sRGB">
<feFlood flood-opacity="0" result="BackgroundImageFix"/>
<feColorMatrix in="SourceAlpha" type="matrix" values="0 0 0 0 0 0 0 0 0 0 0 0 0 0 0 0 0 0 127 0" result="hardAlpha"/>
<feOffset/>
<feGaussianBlur stdDeviation="8.05"/>
<feColorMatrix type="matrix" values="0 0 0 0 1 0 0 0 0 0.878431 0 0 0 0 0.392157 0 0 0 0.31 0"/>
<feBlend mode="normal" in2="BackgroundImageFix" result="effect1_dropShadow_832_5807"/>
<feBlend mode="normal" in="SourceGraphic" in2="effect1_dropShadow_832_5807" result="shape"/>
</filter>
<linearGradient id="paint0_linear_832_5807" x1="150.495" y1="417.965" x2="181.038" y2="472.634" gradientUnits="userSpaceOnUse">
<stop stop-color="#AC7A8C"/>
<stop offset="1" stop-color="#D3978B"/>
</linearGradient>
<linearGradient id="paint1_linear_832_5807" x1="247.34" y1="420.873" x2="239.552" y2="456.418" gradientUnits="userSpaceOnUse">
<stop stop-color="#F9AC53"/>
<stop offset="1" stop-color="#FED871"/>
</linearGradient>
<linearGradient id="paint2_linear_832_5807" x1="491.091" y1="350.562" x2="568.699" y2="484.618" gradientUnits="userSpaceOnUse">
<stop stop-color="#A577BC"/>
<stop offset="1" stop-color="#D197EC"/>
</linearGradient>
<linearGradient id="paint3_linear_832_5807" x1="434.31" y1="182.757" x2="434.31" y2="274.985" gradientUnits="userSpaceOnUse">
<stop stop-color="#FEA13D"/>
<stop offset="1" stop-color="#EBA272"/>
</linearGradient>
<linearGradient id="paint4_linear_832_5807" x1="396.24" y1="72.1895" x2="364.961" y2="233.196" gradientUnits="userSpaceOnUse">
<stop stop-color="#FFE98D"/>
<stop offset="0.745192" stop-color="#FFB63E"/>
<stop offset="0.961538" stop-color="#FFB63E" stop-opacity="0"/>
</linearGradient>
<linearGradient id="paint5_linear_832_5807" x1="198.71" y1="130.774" x2="513.962" y2="585.207" gradientUnits="userSpaceOnUse">
<stop offset="0.0769231" stop-color="#FFF182"/>
<stop offset="0.346394" stop-color="#F09955"/>
<stop offset="0.788462" stop-color="#7A57AA"/>
</linearGradient>
<linearGradient id="paint6_linear_832_5807" x1="298.483" y1="548.227" x2="477.225" y2="498.552" gradientUnits="userSpaceOnUse">
<stop stop-color="#FEE685"/>
<stop offset="0.600962" stop-color="#DB9087"/>
<stop offset="0.807692" stop-color="#DB9087" stop-opacity="0"/>
</linearGradient>
<linearGradient id="paint7_linear_832_5807" x1="203.944" y1="281.282" x2="414.928" y2="313.8" gradientUnits="userSpaceOnUse">
<stop offset="0.0384615" stop-color="#FFC742" stop-opacity="0"/>
<stop offset="0.274038" stop-color="#FFC742"/>
<stop offset="0.735968" stop-color="#FBE494"/>
</linearGradient>
<linearGradient id="paint8_linear_832_5807" x1="110.641" y1="162.634" x2="51.1447" y2="456.926" gradientUnits="userSpaceOnUse">
<stop offset="0.274038" stop-color="#FEF4AD"/>
<stop offset="0.699605" stop-color="#FBAE4A"/>
</linearGradient>
<linearGradient id="paint9_linear_832_5807" x1="133.311" y1="239.771" x2="133.311" y2="300.138" gradientUnits="userSpaceOnUse">
<stop stop-color="#FCC240"/>
<stop offset="1" stop-color="#FFD44F"/>
</linearGradient>
<linearGradient id="paint10_linear_832_5807" x1="292.952" y1="0.136893" x2="213.317" y2="130.06" gradientUnits="userSpaceOnUse">
<stop stop-color="#FEDC64"/>
<stop offset="1" stop-color="#FFB325"/>
</linearGradient>
</defs>
</svg>
