<svg width="62" height="22" viewBox="0 0 62 22" fill="none" xmlns="http://www.w3.org/2000/svg">
<path d="M61.6333 6.54661C58.9247 6.35037 55.1358 10.0574 53.7512 11.7257C53.6927 12.4433 53.8847 13.868 53.7515 15.5042C53.5849 17.5495 60.3356 22.478 60.4057 21.6168L61.6333 6.54661Z" fill="url(#paint0_linear_982_4574)"/>
<path d="M34.7253 0.440062L28.2983 4.33483L37.4487 6.63288L37.5987 4.79059C35.8357 3.79079 34.9485 1.47366 34.7253 0.440062Z" fill="url(#paint1_linear_982_4574)"/>
<path d="M55.886 14.7969C56.0293 14.537 56.1018 14.2654 56.1208 13.9927C56.2435 12.2352 54.1272 11.4552 52.3698 11.3279C49.6568 10.8429 42.5751 9.08247 35.9516 5.92025C30.1473 3.14914 22.227 4.2116 16.9527 5.46507C13.6627 6.24696 10.2499 6.7939 6.91567 7.34739C5.45208 7.59035 4.03097 7.87529 3.0903 8.08227C2.35786 8.19388 1.23416 8.51351 0.767699 9.07506C0.271884 9.67196 1.15332 10.2898 1.8874 10.5259C2.72629 10.7958 3.55539 11.1027 4.33584 11.4189C6.10218 12.1347 5.24107 12.9753 3.37812 12.5613C1.86518 12.2252 2.05231 13.0368 3.43235 13.7357C5.1125 14.5865 7.10695 15.471 8.41583 16.0442C8.99612 16.2984 9.6154 16.4507 10.249 16.4966L12.598 16.6668C12.9225 16.737 13.4255 16.8403 13.9584 16.9399C15.2282 17.177 16.5003 17.4102 17.7795 17.5932C27.4268 18.9731 48.3619 16.3301 49.3271 16.2992C49.7689 16.285 50.3485 16.1556 50.877 16.0056C51.6391 15.7895 51.9536 15.6242 52.7414 15.6812C53.7475 15.7541 55.3973 15.6832 55.886 14.7969Z" fill="url(#paint2_linear_982_4574)"/>
<path d="M12.4202 13.9069C11.026 12.6576 9.3769 13.0416 6.8083 13.313C6.20126 13.3771 5.49646 12.8142 4.88732 12.7894C4.78644 12.7852 4.69165 12.7849 4.61489 12.7794C0.903977 11.9953 2.56773 13.521 4.15925 14.1047C5.59122 14.8174 8.37162 16.0493 8.56535 16.1102C8.61851 16.1269 9.13889 16.3859 9.53011 16.4611L12.4376 16.6717C12.5071 16.6768 12.577 16.6745 12.6461 16.6651L14.0552 16.4722C14.5857 16.3995 14.9689 15.9236 14.9252 15.3917L14.9218 15.3496C14.8586 14.5799 14.2028 14.8851 13.4574 14.6836C13.2577 14.6296 12.9679 14.3976 12.4202 13.9069Z" fill="#AFFDFF"/>
<ellipse cx="1.98024" cy="1.82206" rx="1.98024" ry="1.82206" transform="matrix(0.997386 0.0722567 -0.0811895 0.996699 8.20361 8.35452)" fill="white"/>
<ellipse cx="1.28716" cy="1.16799" rx="1.28716" ry="1.16799" transform="matrix(0.997386 0.0722567 -0.0811895 0.996699 8.84082 9.05618)" fill="black"/>
<path d="M15.8089 15.4375C16.6373 14.2904 15.7692 12.1653 15.2272 11.2997C15.4674 13.9901 13.4996 16.0606 12.49 16.7059L15.2038 17.2259C15.5815 17.2892 16.4039 17.3741 16.6793 17.4406C24.3379 19.2887 38.6045 17.556 47.0638 16.624C47.5263 16.5856 48.8236 16.4497 50.3129 16.2127C51.7248 15.7976 53.0672 15.7656 53.5619 15.8014C53.7141 15.8124 54.0888 15.818 54.3698 15.7521C55.5711 15.6667 56.0232 14.7223 56.0991 14.2607L39.8618 14.8089C31.499 15.4964 14.9804 16.5846 15.8089 15.4375Z" fill="#66ADAF"/>
<path d="M33.6461 5.01047C26.3402 2.95513 15.4659 5.15973 13.5283 6.38764C11.5907 7.61554 15.0243 9.97213 15.0243 9.97213C20.4818 9.31371 31.3901 9.32635 33.985 11.3458C36.5799 13.3652 47.2374 12.2065 52.129 12.3792C52.228 12.3827 52.3995 12.1063 52.4631 11.3261C52.0073 11.4336 40.2455 7.74161 36.3187 6.07631C35.7297 5.77927 35.3358 5.48583 33.6461 5.01047Z" fill="url(#paint3_linear_982_4574)"/>
<path d="M40.3467 7.63873C36.5499 6.84686 15.8366 6.58332 13.9037 7.26875C11.9709 7.95417 14.8764 9.96249 15.0738 9.9768C18.6677 9.59115 28.3295 9.438 31.3643 9.98574C42.4441 14.8167 45.615 10.0345 40.3467 7.63873Z" fill="url(#paint4_linear_982_4574)"/>
<path d="M15.6944 15.6204C16.0367 15.2324 16.1653 14.7198 16.1602 14.1683C16.1508 13.1538 15.0078 13.4515 14.608 14.3878C14.4523 14.7524 14.2477 15.0892 13.9866 15.3935C13.5573 15.8938 13.6926 16.9716 14.3356 17.1001C14.5237 17.1378 14.7005 17.0722 14.8088 16.9128C14.9689 16.677 15.2475 16.2623 15.6944 15.6204Z" fill="#376768"/>
<path d="M15.0361 11.0523C15.0501 12.2698 15.1961 15.1858 12.6097 16.4505" stroke="#3A3A3A" stroke-width="2" stroke-linecap="round"/>
<rect width="0.690407" height="1.49531" rx="0.345204" transform="matrix(0.965532 -0.260283 0.290077 0.957003 15.5605 5.83646)" fill="#230973"/>
<rect width="0.690407" height="5.34824" rx="0.345204" transform="matrix(0.965532 -0.260283 0.290077 0.957003 25.3145 4.38919)" fill="#230973"/>
<rect width="0.690407" height="4.9618" rx="0.345204" transform="matrix(0.965532 -0.260283 0.290077 0.957003 23.522 4.44681)" fill="#230973"/>
<rect width="0.690407" height="4.59439" rx="0.345204" transform="matrix(0.965532 -0.260283 0.290077 0.957003 21.8193 4.60403)" fill="#230973"/>
<rect width="0.690407" height="4.07291" rx="0.345204" transform="matrix(0.965532 -0.260283 0.290077 0.957003 20.1104 4.85501)" fill="#230973"/>
<rect width="0.690407" height="3.54073" rx="0.345204" transform="matrix(0.965532 -0.260283 0.290077 0.957003 18.5083 5.02005)" fill="#230973"/>
<rect width="0.690407" height="2.54388" rx="0.345204" transform="matrix(0.965532 -0.260283 0.290077 0.957003 16.8901 5.37063)" fill="#230973"/>
<rect width="4.29596" height="1.2326" rx="0.616302" transform="matrix(0.997046 -0.0768071 0.0862946 0.99627 7.76807 7.92288)" fill="#0B0041"/>
<defs>
<linearGradient id="paint0_linear_982_4574" x1="58.0783" y1="6.28911" x2="65.4422" y2="10.9898" gradientUnits="userSpaceOnUse">
<stop stop-color="#0B2374"/>
<stop offset="1" stop-color="#1542DA"/>
</linearGradient>
<linearGradient id="paint1_linear_982_4574" x1="33.2928" y1="0.336281" x2="32.8607" y2="6.3005" gradientUnits="userSpaceOnUse">
<stop stop-color="#0B2374"/>
<stop offset="1" stop-color="#1542DA"/>
</linearGradient>
<linearGradient id="paint2_linear_982_4574" x1="0.576766" y1="9.30255" x2="56.1344" y2="13.8282" gradientUnits="userSpaceOnUse">
<stop stop-color="#95FCFF"/>
<stop offset="1" stop-color="#0C2475"/>
</linearGradient>
<linearGradient id="paint3_linear_982_4574" x1="13.1439" y1="3.68505" x2="51.3827" y2="10.443" gradientUnits="userSpaceOnUse">
<stop stop-color="#403DB3"/>
<stop offset="1" stop-color="#1C1A4D"/>
</linearGradient>
<linearGradient id="paint4_linear_982_4574" x1="13.4991" y1="6.36523" x2="16.0393" y2="18.8227" gradientUnits="userSpaceOnUse">
<stop stop-color="#33299B"/>
<stop offset="1" stop-color="#110E35"/>
</linearGradient>
</defs>
</svg>
