<svg width="585" height="884" viewBox="0 0 585 884" fill="none" xmlns="http://www.w3.org/2000/svg">
<rect width="585" height="884" rx="20" fill="url(#paint0_linear_1148_16)"/>
<rect width="585" height="884" rx="20" fill="white" fill-opacity="0.15"/>
<circle cx="372" cy="347" r="59" fill="#DEDEDE"/>
<ellipse cx="370" cy="347.5" rx="70" ry="70.5" fill="#FFF9E1" fill-opacity="0.43"/>
<rect y="582" width="585" height="11" fill="#A1F1FA"/>
<g clip-path="url(#clip0_1148_16)">
<path d="M63.5678 350.546C61 351 61 352.046 57.0678 353.546C53.5678 354.046 47.0678 354.546 42.5678 352.046C38.9678 350.046 42.4011 350.213 44.5678 350.546C45.9011 350.38 48.2678 349.446 47.0678 347.046C42.6678 341.846 44.9011 337.213 46.5678 335.546C48.0678 334.379 51.1678 332.746 51.5678 335.546C49.9678 342.346 52.2344 346.046 53.5677 347.046C53.2344 345.546 52.9677 341.646 54.5677 338.046C56.5677 333.546 59.0678 335.046 58.0678 336.046C57.0678 337.046 53.0678 348.046 57.0678 349.046C61.0678 350.046 59.0678 348.546 63.5678 347.046C68.0678 345.546 67.0678 349.046 68.5678 349.046C69.7678 349.046 70.4011 350.046 70.5678 350.546C69.0678 350.546 66.1355 350.092 63.5678 350.546Z" fill="#2B2B2B"/>
</g>
<g clip-path="url(#clip1_1148_16)">
<path d="M389.604 170.819C385.667 171.5 385.667 173.069 379.637 175.319C374.271 176.069 364.304 176.819 357.404 173.069C351.884 170.069 357.148 170.319 360.471 170.819C362.515 170.569 366.144 169.169 364.304 165.569C357.557 157.769 360.982 150.819 363.537 148.319C365.837 146.569 370.591 144.119 371.204 148.319C368.751 158.519 372.226 164.069 374.27 165.569C373.759 163.319 373.35 157.469 375.804 152.069C378.87 145.319 382.704 147.569 381.171 149.069C379.637 150.569 373.504 167.069 379.637 168.569C385.771 170.069 382.704 167.819 389.604 165.569C396.504 163.319 394.971 168.569 397.271 168.569C399.111 168.569 400.082 170.069 400.337 170.819C398.037 170.819 393.541 170.138 389.604 170.819Z" fill="#2B2B2B"/>
</g>
<g opacity="0.84" clip-path="url(#clip2_1148_16)">
<path d="M418.817 284.7C422.543 269.251 438.983 268.507 441.567 270.197C443.547 265.751 455.902 249.726 480.298 260.869C490.643 267.266 493.18 277.556 493.21 282.888C493.214 283.615 493.519 284.31 494.081 284.768C504.617 293.368 517.35 312.239 490.389 324.816C490.111 324.945 489.794 325.017 489.487 325.017H422.835C422.514 325.017 422.209 324.944 421.919 324.806C414.44 321.276 407.186 319.548 404.051 305.607C403.998 305.37 403.986 305.116 404.017 304.874C405.012 297.207 407.056 292.525 417.761 286.16C418.293 285.844 418.672 285.303 418.817 284.7Z" fill="#FAFAFA"/>
</g>
<g opacity="0.84" clip-path="url(#clip3_1148_16)">
<path d="M76.091 185.488C79.3828 171.831 93.9073 171.173 96.1902 172.667C97.9399 168.736 108.855 154.569 130.409 164.42C139.549 170.076 141.79 179.173 141.816 183.886C141.82 184.529 142.09 185.144 142.586 185.549C151.894 193.152 163.145 209.835 139.325 220.953C139.079 221.068 138.798 221.131 138.528 221.131H79.641C79.3573 221.131 79.088 221.066 78.8312 220.945C72.2234 217.824 65.8144 216.296 63.0452 203.972C62.998 203.762 62.9874 203.537 63.0151 203.324C63.894 196.545 65.7002 192.406 75.158 186.779C75.628 186.5 75.9623 186.022 76.091 185.488Z" fill="#FAFAFA"/>
</g>
<path d="M48.266 57.8085C33.656 38.0025 47.7968 10 72.4084 10H546C562.569 10 576 23.4315 576 40V741.913C576 771.85 536.966 783.32 520.77 758.143L220.151 290.826L48.266 57.8085Z" fill="white" fill-opacity="0.25"/>
<g clip-path="url(#clip4_1148_16)">
<path d="M0 590H585V864C585 875.046 576.046 884 565 884H20C8.9543 884 0 875.046 0 864V590Z" fill="url(#paint1_linear_1148_16)"/>
<path d="M0 823L285.5 862.5L863 884.5V1083H0V823Z" fill="url(#paint2_linear_1148_16)" fill-opacity="0.21"/>
<path opacity="0.9" d="M421.761 604.629L407.779 611.727C401.415 614.958 402.139 624.287 408.957 626.397C430.21 632.974 457.193 640.288 471.18 638.309C474.769 637.801 476.328 634.068 475.363 630.574L468.344 605.174C467.286 601.342 463.574 598.869 459.63 599.368L424.379 603.825C423.466 603.941 422.581 604.213 421.761 604.629Z" fill="url(#paint3_radial_1148_16)"/>
<path d="M306.021 625.142L315 615.072C339.915 593.22 370.771 595.861 392.557 603.687C398.046 605.658 398.775 612.74 394.19 616.344L381.622 626.225C380.558 627.062 379.299 627.614 377.963 627.832L313.278 638.363C305.839 639.573 301.006 630.767 306.021 625.142Z" fill="url(#paint4_radial_1148_16)" fill-opacity="0.66"/>
<path d="M296.243 657.551L297.401 652.884C298.126 649.96 300.494 647.672 303.436 647.026C367.251 633.024 372.72 646.903 372.649 652.276C372.633 653.499 372.81 654.786 373.555 655.756C375.282 658.004 373.848 661.273 371.024 661.525L304.719 667.446C299.245 667.935 294.919 662.885 296.243 657.551Z" fill="url(#paint5_radial_1148_16)"/>
<path d="M201.657 656.885L201.657 651.133C201.657 649.154 202.378 647.124 204.238 646.45C214.735 642.647 245.707 651.078 268.796 651.44C274.12 651.524 286.842 664.498 285.179 669.556C284.508 671.598 282.499 672.892 280.362 672.658L208.788 664.838C204.731 664.395 201.657 660.967 201.657 656.885Z" fill="url(#paint6_radial_1148_16)"/>
<path d="M520.102 661.487L501.395 643.121C499.863 641.616 498.973 639.535 499.091 637.391C501.401 595.425 547.108 592.437 583.354 602.134C586.735 603.038 589 606.152 589 609.652V635.209C589 638.552 586.922 641.542 583.789 642.707L528.496 663.277C525.588 664.359 522.316 663.661 520.102 661.487Z" fill="#32E2FA" fill-opacity="0.45"/>
<path opacity="0.86" d="M396.926 645.6C436.409 656.046 488.28 637.665 496.619 641.877C497.721 642.434 497.554 643.897 497.184 645.076L494.791 652.708C493.771 655.961 490.802 658.21 487.394 658.311L394.113 661.064C388.935 661.217 385.066 656.347 386.387 651.337C387.572 646.84 392.43 644.41 396.926 645.6Z" fill="url(#paint7_radial_1148_16)" fill-opacity="0.53"/>
<path d="M208.524 634.829L199.033 620.347C194.074 612.781 203.134 600.944 212.169 601.411C241.409 602.92 267.361 591.026 291.633 603.371C292.486 603.805 293.256 604.407 293.91 605.105L295.905 607.235C298.857 610.386 299.155 615.181 296.422 618.524C290.733 625.479 280.866 636.415 273.465 638.594C264.426 641.256 228.224 639.554 215.467 638.854C212.638 638.699 210.077 637.2 208.524 634.829Z" fill="url(#paint8_radial_1148_16)"/>
<path d="M14.381 596.449L31.2919 599.751C33.2748 600.138 35.1014 601.209 36.4038 602.754C49.4241 618.196 26.7243 595.228 62.0904 629.041C64.5782 631.419 65.4993 635.023 64.4468 638.3L60.0484 651.994C58.0062 658.353 49.994 660.35 45.2058 655.695L24.5226 635.586L5.51621 612.488C3.93963 610.572 3.224 608.09 3.53843 605.629L3.7285 604.141C4.38789 598.98 9.274 595.451 14.381 596.449Z" fill="url(#paint9_radial_1148_16)" fill-opacity="0.56"/>
<path d="M16.3729 659.371L25.3696 655.753C28.9435 654.316 32.9615 655.427 35.9092 657.906C47.2178 667.42 57.8058 663.565 66.2763 660.411C71.2707 658.552 75.3795 662.455 74.8421 667.757L74.243 673.668C73.8109 677.933 70.4315 681.3 66.1658 681.718L28.3837 685.417C25.3981 685.709 22.4632 684.495 20.5571 682.178L9.82434 669.135C6.75466 665.405 9.40839 659.784 14.2395 659.784C14.9705 659.784 15.6947 659.644 16.3729 659.371Z" fill="url(#paint10_radial_1148_16)" fill-opacity="0.72"/>
<g filter="url(#filter0_i_1148_16)">
<path d="M67.7849 624.903L55.4483 604.744C52.0341 599.164 60.7611 589.346 67.128 590.845C105.254 599.821 156.543 593.482 178.256 609.926C178.726 610.282 179.118 610.714 179.45 611.201L189.012 625.19C189.694 626.187 190.059 627.367 190.059 628.575L190.059 634.169C190.059 637.482 187.372 640.169 184.059 640.169L134.484 640.169C134.086 640.169 133.69 640.129 133.3 640.051L71.7185 627.653C70.0818 627.323 68.6564 626.327 67.7849 624.903Z" fill="url(#paint11_radial_1148_16)"/>
</g>
<path opacity="0.72" d="M108.638 675.094L76.1779 645.241C73.9334 643.177 75.8855 639.458 78.8748 640.06C141.821 652.743 171.191 653.503 179.941 653.347C181.576 653.318 183.005 654.531 183.182 656.157L184.044 664.084C184.083 664.449 184.19 664.803 184.358 665.13L187.848 671.925C189.456 675.055 185.259 677.882 182.912 675.261C182.435 674.729 181.783 674.382 181.074 674.287L171.9 673.057C171.722 673.033 171.541 673.026 171.361 673.034L110.81 675.882C110.01 675.92 109.228 675.636 108.638 675.094Z" fill="url(#paint12_radial_1148_16)"/>
<rect y="590" width="863" height="256" fill="url(#paint13_linear_1148_16)" fill-opacity="0.54"/>
<rect x="442.555" y="540" width="116.952" height="667.231" transform="rotate(30.0932 442.555 540)" fill="url(#paint14_radial_1148_16)" fill-opacity="0.2"/>
<rect x="848.054" y="559.414" width="116.952" height="667.231" transform="rotate(24.6827 848.054 559.414)" fill="url(#paint15_radial_1148_16)" fill-opacity="0.12"/>
<path opacity="0.92" d="M244.242 599.458L349.243 620.957L79.9888 1111.07L8.74239 1069.78L244.242 599.458Z" fill="url(#paint16_radial_1148_16)" fill-opacity="0.19"/>
<path opacity="0.92" d="M314.242 554.458L419.243 575.957L149.989 1066.07L78.7424 1024.78L314.242 554.458Z" fill="url(#paint17_radial_1148_16)" fill-opacity="0.19"/>
<path opacity="0.86" d="M85.235 612.978L161.5 604.5L-65.1442 1121.81L-207.208 1034.39L85.235 612.978Z" fill="url(#paint18_radial_1148_16)" fill-opacity="0.19"/>
<path opacity="0.86" d="M180 656.392L200 680.392L-57.7536 1165.68L-129 1124.39L180 656.392Z" fill="url(#paint19_radial_1148_16)" fill-opacity="0.19"/>
<path opacity="0.86" d="M76.7572 613.496L118 607.999L-154.754 1122.06L-226.001 1080.77L76.7572 613.496Z" fill="url(#paint20_radial_1148_16)" fill-opacity="0.19"/>
<path d="M35 633.5L59.3589 657.936L-22.6663 947.75L-64.9785 961.828L35 633.5Z" fill="url(#paint21_radial_1148_16)" fill-opacity="0.11"/>
<g opacity="0.48" filter="url(#filter1_n_1148_16)">
<path d="M207.5 601.501C207.5 601.501 286.501 597.001 291 604C295.499 610.999 215.019 1378.3 215.019 1378.3L37.5193 1343.3L207.5 601.501Z" fill="url(#paint22_radial_1148_16)" fill-opacity="0.38"/>
<path d="M207.5 601.501C207.5 601.501 286.501 597.001 291 604C295.499 610.999 215.019 1378.3 215.019 1378.3L37.5193 1343.3L207.5 601.501Z" fill="url(#paint23_linear_1148_16)" fill-opacity="0.22"/>
<path d="M288.734 604.198C289.235 604.412 289.5 604.595 289.63 604.705C289.638 604.775 289.645 604.863 289.652 604.972C289.678 605.392 289.688 606.004 289.678 606.819C289.658 608.442 289.561 610.768 289.39 613.764C289.049 619.749 288.417 628.336 287.532 639.157C285.763 660.798 282.989 691.337 279.533 727.795C272.622 800.709 262.983 897.274 253.204 993.623C243.426 1089.97 233.507 1186.1 226.032 1258.14C222.295 1294.17 219.169 1324.16 216.977 1345.16C215.881 1355.66 215.019 1363.9 214.431 1369.52C214.137 1372.33 213.911 1374.49 213.758 1375.94C213.737 1376.14 213.717 1376.33 213.698 1376.51L39.3273 1342.13L208.709 602.937C209.273 602.907 210.038 602.866 210.979 602.819C213.144 602.71 216.244 602.562 219.977 602.406C227.445 602.094 237.445 601.75 247.581 601.625C257.726 601.5 267.974 601.595 275.95 602.153C279.945 602.432 283.32 602.825 285.81 603.35C287.059 603.614 288.034 603.9 288.734 604.198Z" stroke="white" stroke-opacity="0.08" stroke-width="3"/>
</g>
<g filter="url(#filter2_n_1148_16)">
<path d="M504.5 559.435C512.402 552.435 610.499 571.644 610.5 582.935C610.501 594.226 380.692 1295.93 380.692 1295.93L108 1184.29C108 1184.29 496.598 566.434 504.5 559.435Z" fill="url(#paint24_radial_1148_16)" fill-opacity="0.12"/>
<path d="M504.5 559.435C512.402 552.435 610.499 571.644 610.5 582.935C610.501 594.226 380.692 1295.93 380.692 1295.93L108 1184.29C108 1184.29 496.598 566.434 504.5 559.435Z" fill="url(#paint25_linear_1148_16)" fill-opacity="0.2"/>
<path d="M594.55 574.93C599.177 576.558 602.933 578.17 605.507 579.689C606.797 580.45 607.723 581.149 608.308 581.766C608.91 582.4 609 582.783 609 582.935C609 582.925 608.983 583.114 608.868 583.646C608.764 584.125 608.605 584.773 608.39 585.593C607.96 587.232 607.32 589.507 606.48 592.382C604.8 598.13 602.334 606.237 599.193 616.369C592.911 636.63 583.936 664.962 573.164 698.648C551.621 766.017 522.896 854.787 494.17 943.206C465.444 1031.62 436.719 1119.69 415.174 1185.65C404.402 1218.63 395.425 1246.09 389.141 1265.29C385.999 1274.9 383.53 1282.44 381.847 1287.58C381.006 1290.15 380.36 1292.13 379.925 1293.45C379.869 1293.62 379.816 1293.78 379.767 1293.93L110.22 1183.57C110.273 1183.49 110.328 1183.4 110.385 1183.31C111.121 1182.14 112.212 1180.41 113.636 1178.15C116.484 1173.62 120.662 1166.98 125.982 1158.52C136.623 1141.62 151.834 1117.45 170.112 1088.44C206.666 1030.41 255.487 952.955 304.555 875.287C353.623 797.618 402.938 719.733 440.478 660.827C459.249 631.374 475.074 606.669 486.453 589.11C492.143 580.329 496.718 573.34 499.993 568.439C501.63 565.988 502.938 564.066 503.894 562.706C504.373 562.026 504.758 561.495 505.048 561.113C505.372 560.687 505.501 560.552 505.494 560.557C505.686 560.387 506.212 560.117 507.3 559.889C508.337 559.672 509.703 559.53 511.377 559.471C514.721 559.351 519.128 559.565 524.252 560.059C534.491 561.045 547.438 563.133 560.156 565.794C572.878 568.456 585.317 571.681 594.55 574.93Z" stroke="white" stroke-opacity="0.02" stroke-width="3"/>
</g>
<path d="M-6 719.642L245.333 694.074L580.24 666.539L590 883.539H-0.509724L-6 719.642Z" fill="url(#paint26_linear_1148_16)" fill-opacity="0.92"/>
<path d="M-5 764.161L248.441 744.603L586.158 723.539L596 889.539H0.536336L-5 764.161Z" fill="url(#paint27_linear_1148_16)"/>
</g>
<path d="M92.9903 417.712L124.377 347.62C124.538 347.26 124.895 347.028 125.289 347.028H134.936C135.489 347.028 135.936 346.581 135.936 346.028V329.328C135.936 328.97 136.127 328.64 136.437 328.461L138.624 327.202C139.059 326.951 139.611 327.062 139.917 327.459L163.717 358.442L210.642 419.854L269.2 495.361C269.665 495.961 269.319 496.839 268.57 496.961L232.066 502.882C232.013 502.89 231.959 502.895 231.906 502.895H137.02C136.467 502.895 136.02 502.447 136.02 501.895V497.691C136.02 497.139 135.572 496.691 135.02 496.691H126.219L43.4992 495.518C42.709 495.507 42.2435 494.627 42.6787 493.967L92.9122 417.854C92.942 417.809 92.9681 417.762 92.9903 417.712Z" fill="#E8FBFF" stroke="#CEEDF2"/>
<path d="M14.6382 546.183V535.885C14.6382 535.333 15.0858 534.885 15.638 534.885L259.401 534.844C259.953 534.844 260.401 535.292 260.401 535.844V537.122C260.401 537.42 260.268 537.703 260.038 537.893L234.664 558.865C234.619 558.902 234.572 558.935 234.522 558.963L209.908 572.977C209.833 573.02 209.753 573.052 209.671 573.074L178.064 581.505C177.98 581.527 177.893 581.539 177.806 581.539H64.2589C64.1644 581.539 64.0703 581.525 63.9795 581.499L46.2458 576.339C46.1353 576.307 46.0312 576.256 45.938 576.188L29.81 564.49C29.7444 564.443 29.6849 564.387 29.6327 564.325L14.8738 546.828C14.7216 546.648 14.6382 546.419 14.6382 546.183Z" fill="#7E4B31" stroke="#5D3520"/>
<path d="M289.306 514.015L267.212 498.24C266.497 497.729 266.74 496.611 267.603 496.444L267.72 496.422C267.984 496.371 268.257 496.428 268.478 496.581L290.957 512.13C291.583 512.563 291.515 513.509 290.834 513.848L290.332 514.097C290.001 514.262 289.606 514.23 289.306 514.015Z" fill="#575757" stroke="#363636"/>
<path d="M41.5961 495.032L14.508 524.985C13.9276 525.627 14.383 526.652 15.2482 526.652C15.5232 526.652 15.7861 526.539 15.9747 526.339L44.1809 496.389C44.7818 495.751 44.3294 494.703 43.4529 494.703H42.3378C42.0551 494.703 41.7857 494.823 41.5961 495.032Z" fill="#575757"/>
<path d="M35.5176 565.974H62.8487C63.8464 565.974 64.2289 564.674 63.3901 564.134L44.8693 552.207C44.7078 552.103 44.5199 552.048 44.3279 552.048H25.0401C24.1801 552.048 23.7212 553.062 24.2889 553.708L34.7664 565.634C34.9562 565.851 35.23 565.974 35.5176 565.974Z" fill="#72452D"/>
<path d="M64.5235 579.468L98.6583 579.789C99.8836 579.801 100.051 578.022 98.8448 577.805L89.621 576.145C89.5273 576.128 89.4366 576.098 89.3515 576.055L73.4311 568.109C73.2957 568.041 73.1467 568.005 72.9953 568.004L40.2915 567.65C39.2831 567.64 38.8945 568.959 39.7477 569.497L48.2631 574.861C48.344 574.912 48.4318 574.951 48.5238 574.977L64.2606 579.431C64.3462 579.455 64.4346 579.468 64.5235 579.468Z" fill="#72452D"/>
<path d="M67.355 565.789L48.331 552.235C47.5367 551.669 47.9395 550.417 48.9148 550.42L236.883 551.088C237.848 551.092 238.249 552.325 237.471 552.895L219.887 565.781C219.715 565.906 219.508 565.974 219.296 565.974H67.9352C67.7272 565.974 67.5244 565.909 67.355 565.789Z" fill="#9F5E3B"/>
<path d="M94.1246 574.67C90.0903 573.016 83.0961 570.111 79.6884 568.584C78.9048 568.233 79.0596 567.612 79.9184 567.612H208.175C209.314 567.612 209.567 569.214 208.482 569.564L195.628 573.715L174.612 578.24C174.543 578.255 174.472 578.262 174.402 578.262H115.717C115.662 578.262 115.608 578.258 115.554 578.249L94.3377 574.731C94.2638 574.718 94.1939 574.699 94.1246 574.67Z" fill="#9F5E3B"/>
<path d="M37.4187 538.115L19.2897 536.597C18.6118 536.541 18.0763 537.163 18.2332 537.825L20.6456 548.001C20.7525 548.452 21.1552 548.771 21.6186 548.771H41.6885C42.4329 548.771 42.9163 547.986 42.582 547.321L38.2287 538.662C38.0724 538.351 37.7656 538.144 37.4187 538.115Z" fill="#72452D"/>
<path d="M44.9194 548.22L40.757 539.933C40.424 539.27 40.9033 538.488 41.645 538.484L253.137 537.315C254.018 537.31 254.474 538.365 253.867 539.004L244.873 548.46C244.685 548.658 244.423 548.771 244.149 548.771H45.813C45.4349 548.771 45.0891 548.557 44.9194 548.22Z" fill="#9F5E3B"/>
<path d="M25.1353 526.273V508.811C25.1353 508.258 25.583 507.811 26.1353 507.811H112.282C112.835 507.811 113.282 508.258 113.282 508.811V526.272C113.282 526.825 113.731 527.273 114.284 527.272L261.088 527.06C261.238 527.059 261.386 527.025 261.522 526.96L299.351 508.647C299.657 508.499 300.017 508.516 300.307 508.693L302.52 510.042C302.818 510.224 303 510.547 303 510.896V513.812C303 514.196 302.78 514.547 302.433 514.713L260.773 534.746C260.638 534.811 260.49 534.844 260.34 534.844H14C13.4477 534.844 13 534.397 13 533.844V528.273C13 527.721 13.4477 527.273 14 527.273H24.1353C24.6876 527.273 25.1353 526.826 25.1353 526.273Z" fill="#7E4B31" stroke="#5D3520"/>
<path d="M127.88 327.76L126.875 525.647C126.872 526.201 127.321 526.652 127.875 526.652H134.881C135.434 526.652 135.881 526.204 135.881 525.652V327.765C135.881 327.212 135.434 326.765 134.881 326.765H128.88C128.33 326.765 127.883 327.209 127.88 327.76Z" fill="#7E4B31" stroke="#5D3520"/>
<path d="M121.974 329.871C121.96 328.094 121.947 325.688 121.959 324.384C121.964 323.873 122.37 323.488 122.88 323.488H141.435C141.987 323.488 142.435 323.936 142.435 324.488V329.861C142.435 330.413 141.987 330.861 141.435 330.861H122.973C122.425 330.861 121.978 330.42 121.974 329.871Z" fill="#7E4B31" stroke="#5D3520"/>
<path d="M365.112 609.318C365.112 618.417 367.638 624.016 370.165 614.218" stroke="#5D5D5D"/>
<path d="M246.188 497.204C245.326 502.335 233.148 507.458 222.394 511.71C217.467 513.404 208.796 515.359 205.426 508.316C200.863 498.78 215.215 492.926 228.739 487.267C237.253 483.704 241.716 481.496 244.713 479.086C245.417 478.52 246.705 479.042 246.729 479.94C246.862 484.846 247.079 491.901 246.188 497.204Z" fill="#0D0C52"/>
<path d="M210.507 518.834L210.552 521.625C210.552 521.941 210.295 522.198 209.978 522.198H206.942C206.39 522.198 205.942 521.75 205.942 521.198L205.942 519.413C205.942 518.944 206.269 518.537 206.728 518.436L209.293 517.874C209.91 517.738 210.497 518.202 210.507 518.834Z" fill="#FA7325"/>
<rect width="100.955" height="3.11778" rx="1" transform="matrix(0.708307 -0.705905 0.709414 0.704792 231.94 489.804)" fill="#7E2B0A"/>
<rect width="32.0969" height="5.53399" rx="1" transform="matrix(0.708307 -0.705905 0.709414 0.704792 215.169 505.119)" fill="#56280E"/>
<ellipse cx="235.454" cy="491.923" rx="6.45306" ry="7.33839" fill="#B1D3E2"/>
<path d="M236.457 499.974C236.074 499.885 235.784 499.57 235.726 499.181L234.979 494.159C234.895 493.589 235.308 493.066 235.882 493.016L236.251 492.984C236.812 492.936 237.303 493.361 237.336 493.923L237.633 498.985C237.67 499.625 237.081 500.121 236.457 499.974Z" fill="#96C2DB"/>
<ellipse cx="236.374" cy="500.179" rx="2.7656" ry="2.7519" fill="#A9CBDC"/>
<path d="M240.06 487.631C246.272 484.536 258.536 476.445 259.492 468.171C259.548 467.688 259.901 467.282 260.377 467.179C270.995 464.884 281.282 449.704 285.342 441.931C285.447 441.73 285.608 441.578 285.814 441.483C291.582 438.826 302.718 431.749 304.625 423.075C304.723 422.632 305.086 422.28 305.539 422.267C337.792 421.283 363.735 571.792 365.134 610.793" stroke="black"/>
<path d="M192.467 520.363H195.772C196.266 520.363 196.671 520.755 196.688 521.248C196.707 521.767 196.291 522.198 195.772 522.198H193.112C192.56 522.198 192.112 521.75 192.112 521.198L192.113 520.718C192.113 520.522 192.271 520.363 192.467 520.363Z" fill="#F87426"/>
<path d="M202.428 472.805C208.125 464.616 215.506 468.874 218.612 472.141C218.696 472.229 218.794 472.295 218.877 472.384C219.906 473.474 221.053 480.695 221.402 484.697C221.407 484.75 221.416 484.802 221.429 484.854L221.89 486.691C221.926 486.831 221.991 486.962 222.081 487.074L224.082 489.564C224.082 489.564 226.489 493.288 227.558 496.214C232.477 517.495 211.072 520.718 199.755 520.363L173.086 521.634C172.188 521.677 171.692 520.608 172.309 519.954C181.909 509.786 198.546 492.424 199.755 492.224C200.979 492.021 201.489 490.673 201.611 489.933C201.622 489.864 201.623 489.797 201.617 489.728C201.347 486.497 200.824 479.921 200.824 478.657C200.824 477.061 201.359 474.667 202.428 472.805Z" fill="white"/>
<path d="M178.583 498.096C180.31 493.941 191.206 492.275 200.774 491.033C205.106 490.68 212.525 490.927 213.846 497.631C215.633 506.707 202.829 508.516 190.734 510.341C183.459 511.439 179.428 512.301 176.544 513.582C175.716 513.949 174.574 513.128 174.759 512.246C175.63 508.082 176.848 502.273 178.583 498.096Z" fill="#1C1A86"/>
<path d="M201.761 504.445C204.685 503.941 206.881 503.101 208.507 502.101C209.482 501.502 212.967 502.57 212.354 503.52C210.703 506.074 207.823 507.642 205.785 508.325L198.53 510.245L184.798 512.693C183.618 512.937 180.427 514.289 178.665 514.964C177.954 515.237 177.38 515.102 176.894 514.917C176.532 514.78 175.66 513.802 175.409 514.046C175.189 514.259 174.58 514.276 174.678 513.982C176.335 509.018 179.446 508.376 182.416 507.793C184.791 507.378 191.985 506.127 201.761 504.445Z" fill="#2E3CE0"/>
<ellipse cx="4.01009" cy="3.99022" rx="4.01009" ry="3.99022" transform="matrix(-1 0 0 1 214.192 472.539)" fill="#DEE2FA"/>
<ellipse cx="2.40605" cy="2.39413" rx="2.40605" ry="2.39413" transform="matrix(-1 0 0 1 212.587 474.136)" fill="#000944"/>
<path d="M229.269 483.712C231.767 482.935 234.322 483.812 236.04 484.791C236.73 485.184 237.688 484.79 237.709 483.996C237.882 477.479 233.688 475.4 229.269 474.667C226.93 474.279 224.137 473.544 221.885 472.928C220.911 472.662 219.499 474.306 219.469 475.314C219.444 476.157 219.27 477.177 218.842 478.391C217.427 482.416 218.609 484.22 219.495 484.705C219.591 484.758 219.7 484.779 219.81 484.783C221.688 484.858 225.948 484.744 229.269 483.712Z" fill="#FF9531"/>
<path d="M232.636 480.637C234.749 480.761 235.971 481.899 236.659 483.179C237.104 484.006 235.922 484.786 235.042 484.459C234.365 484.206 233.562 483.982 232.636 483.829C230.07 483.403 225.953 484.776 221.408 484.776H219.855C219.648 484.776 219.445 484.712 219.289 484.576C218.903 484.238 218.2 483.504 218.2 482.647C218.2 481.466 218.2 480.519 218.467 480.519C218.735 480.52 229 480.424 232.636 480.637Z" fill="#F97526"/>
<path d="M15 869H563.66C567.653 869 570.035 864.55 567.821 861.228L31.9865 56.9991C25.4023 47.1171 10 51.7782 10 63.6528V864C10 866.761 12.2386 869 15 869Z" fill="white" fill-opacity="0.14"/>
<defs>
<filter id="filter0_i_1148_16" x="54.6816" y="590.691" width="135.377" height="71.4775" filterUnits="userSpaceOnUse" color-interpolation-filters="sRGB">
<feFlood flood-opacity="0" result="BackgroundImageFix"/>
<feBlend mode="normal" in="SourceGraphic" in2="BackgroundImageFix" result="shape"/>
<feColorMatrix in="SourceAlpha" type="matrix" values="0 0 0 0 0 0 0 0 0 0 0 0 0 0 0 0 0 0 127 0" result="hardAlpha"/>
<feOffset dy="22"/>
<feGaussianBlur stdDeviation="21.55"/>
<feComposite in2="hardAlpha" operator="arithmetic" k2="-1" k3="1"/>
<feColorMatrix type="matrix" values="0 0 0 0 0.211765 0 0 0 0 0.603922 0 0 0 0 0.870588 0 0 0 0.26 0"/>
<feBlend mode="normal" in2="shape" result="effect1_innerShadow_1148_16"/>
</filter>
<filter id="filter1_n_1148_16" x="37.5195" y="600.077" width="253.662" height="778.222" filterUnits="userSpaceOnUse" color-interpolation-filters="sRGB">
<feFlood flood-opacity="0" result="BackgroundImageFix"/>
<feBlend mode="normal" in="SourceGraphic" in2="BackgroundImageFix" result="shape"/>
<feTurbulence type="fractalNoise" baseFrequency="0.29411762952804565 0.29411762952804565" stitchTiles="stitch" numOctaves="3" result="noise" seed="2466" />
<feColorMatrix in="noise" type="luminanceToAlpha" result="alphaNoise" />
<feComponentTransfer in="alphaNoise" result="coloredNoise1">
<feFuncA type="discrete" tableValues="0 0 0 0 0 0 0 0 0 0 0 0 0 0 1 1 1 1 1 1 1 1 1 1 1 1 1 1 1 1 1 1 1 1 1 1 1 0 0 0 0 0 0 0 0 0 0 0 0 0 0 0 0 0 0 0 0 0 0 0 0 0 0 0 0 0 0 0 0 0 0 0 0 0 0 0 0 0 0 0 0 0 0 0 0 0 0 0 0 0 0 0 0 0 0 0 0 0 0 0 "/>
</feComponentTransfer>
<feComposite operator="in" in2="shape" in="coloredNoise1" result="noise1Clipped" />
<feFlood flood-color="rgba(0, 0, 0, 0.06)" result="color1Flood" />
<feComposite operator="in" in2="noise1Clipped" in="color1Flood" result="color1" />
<feMerge result="effect1_noise_1148_16">
<feMergeNode in="shape" />
<feMergeNode in="color1" />
</feMerge>
</filter>
<filter id="filter2_n_1148_16" x="108" y="557.938" width="502.5" height="737.996" filterUnits="userSpaceOnUse" color-interpolation-filters="sRGB">
<feFlood flood-opacity="0" result="BackgroundImageFix"/>
<feBlend mode="normal" in="SourceGraphic" in2="BackgroundImageFix" result="shape"/>
<feTurbulence type="fractalNoise" baseFrequency="0.29411762952804565 0.29411762952804565" stitchTiles="stitch" numOctaves="3" result="noise" seed="2466" />
<feColorMatrix in="noise" type="luminanceToAlpha" result="alphaNoise" />
<feComponentTransfer in="alphaNoise" result="coloredNoise1">
<feFuncA type="discrete" tableValues="0 0 0 0 0 0 0 0 0 0 0 0 0 0 1 1 1 1 1 1 1 1 1 1 1 1 1 1 1 1 1 1 1 1 1 1 1 0 0 0 0 0 0 0 0 0 0 0 0 0 0 0 0 0 0 0 0 0 0 0 0 0 0 0 0 0 0 0 0 0 0 0 0 0 0 0 0 0 0 0 0 0 0 0 0 0 0 0 0 0 0 0 0 0 0 0 0 0 0 0 "/>
</feComponentTransfer>
<feComposite operator="in" in2="shape" in="coloredNoise1" result="noise1Clipped" />
<feFlood flood-color="rgba(0, 0, 0, 0.06)" result="color1Flood" />
<feComposite operator="in" in2="noise1Clipped" in="color1Flood" result="color1" />
<feMerge result="effect1_noise_1148_16">
<feMergeNode in="shape" />
<feMergeNode in="color1" />
</feMerge>
</filter>
<linearGradient id="paint0_linear_1148_16" x1="292.5" y1="0" x2="292.5" y2="415.834" gradientUnits="userSpaceOnUse">
<stop stop-color="#FF6B36"/>
<stop offset="1" stop-color="#FECE34"/>
</linearGradient>
<linearGradient id="paint1_linear_1148_16" x1="292.839" y1="606.5" x2="292.573" y2="884" gradientUnits="userSpaceOnUse">
<stop stop-color="#34BEE5"/>
<stop offset="1" stop-color="#0278FD"/>
</linearGradient>
<linearGradient id="paint2_linear_1148_16" x1="377.5" y1="1173.5" x2="410.5" y2="862.5" gradientUnits="userSpaceOnUse">
<stop stop-color="#057FFD"/>
<stop offset="1" stop-color="#034C97" stop-opacity="0"/>
</linearGradient>
<radialGradient id="paint3_radial_1148_16" cx="0" cy="0" r="1" gradientTransform="matrix(19.8283 -9.83642 8.86157 10.8483 445.163 624.657)" gradientUnits="userSpaceOnUse">
<stop stop-color="#45E9FF"/>
<stop offset="1" stop-color="#74EEFF"/>
</radialGradient>
<radialGradient id="paint4_radial_1148_16" cx="0" cy="0" r="1" gradientTransform="matrix(30 11.8057 9.02616 -26.42 357.5 605.949)" gradientUnits="userSpaceOnUse">
<stop stop-color="#45E9FF"/>
<stop offset="1" stop-color="#74EEFF"/>
</radialGradient>
<radialGradient id="paint5_radial_1148_16" cx="0" cy="0" r="1" gradientTransform="matrix(28.6436 2.11904 7.00171 -13.1051 326.055 662.864)" gradientUnits="userSpaceOnUse">
<stop stop-color="#45E9FF"/>
<stop offset="1" stop-color="#74EEFF"/>
</radialGradient>
<radialGradient id="paint6_radial_1148_16" cx="0" cy="0" r="1" gradientTransform="matrix(43.4664 1.90044 9.71931 -20.9497 275.995 663.409)" gradientUnits="userSpaceOnUse">
<stop stop-color="#45E9FF"/>
<stop offset="1" stop-color="#74EEFF"/>
</radialGradient>
<radialGradient id="paint7_radial_1148_16" cx="0" cy="0" r="1" gradientTransform="matrix(30.6455 -0.796578 7.62319 -10.3071 456.879 645.769)" gradientUnits="userSpaceOnUse">
<stop stop-color="#45E9FF"/>
<stop offset="1" stop-color="#74EEFF"/>
</radialGradient>
<radialGradient id="paint8_radial_1148_16" cx="0" cy="0" r="1" gradientTransform="matrix(35.6077 19.5803 16.5185 -26.6633 237.024 605.95)" gradientUnits="userSpaceOnUse">
<stop stop-color="#45E9FF"/>
<stop offset="1" stop-color="#74EEFF"/>
</radialGradient>
<radialGradient id="paint9_radial_1148_16" cx="0" cy="0" r="1" gradientTransform="matrix(23.9392 27.9594 14.6257 0.368742 13.4177 621.697)" gradientUnits="userSpaceOnUse">
<stop stop-color="#45E9FF"/>
<stop offset="1" stop-color="#74EEFF"/>
</radialGradient>
<radialGradient id="paint10_radial_1148_16" cx="0" cy="0" r="1" gradientTransform="matrix(23.9392 27.9594 14.6257 0.368743 12.5022 671.994)" gradientUnits="userSpaceOnUse">
<stop stop-color="#45E9FF"/>
<stop offset="1" stop-color="#74EEFF"/>
</radialGradient>
<radialGradient id="paint11_radial_1148_16" cx="0" cy="0" r="1" gradientTransform="matrix(53.5543 35.552 27.4443 -15.2592 103.541 607.845)" gradientUnits="userSpaceOnUse">
<stop stop-color="#45E9FF"/>
<stop offset="1" stop-color="#74EEFF"/>
</radialGradient>
<radialGradient id="paint12_radial_1148_16" cx="0" cy="0" r="1" gradientTransform="matrix(26.3878 35.6188 28.2234 -17.9449 132.508 673.686)" gradientUnits="userSpaceOnUse">
<stop stop-color="#45E9FF"/>
<stop offset="1" stop-color="#74EEFF"/>
</radialGradient>
<linearGradient id="paint13_linear_1148_16" x1="463" y1="454.5" x2="444.5" y2="879" gradientUnits="userSpaceOnUse">
<stop offset="0.0655091" stop-color="white"/>
<stop offset="1" stop-color="#999999" stop-opacity="0"/>
</linearGradient>
<radialGradient id="paint14_radial_1148_16" cx="0" cy="0" r="1" gradientTransform="matrix(32.2977 876.302 -153.598 16.8421 507.799 804.139)" gradientUnits="userSpaceOnUse">
<stop stop-color="white"/>
<stop offset="1" stop-color="#999999" stop-opacity="0"/>
</radialGradient>
<radialGradient id="paint15_radial_1148_16" cx="0" cy="0" r="1" gradientTransform="matrix(32.2977 876.302 -153.598 16.8421 913.298 823.553)" gradientUnits="userSpaceOnUse">
<stop stop-color="white"/>
<stop offset="1" stop-color="#999999" stop-opacity="0"/>
</radialGradient>
<radialGradient id="paint16_radial_1148_16" cx="0" cy="0" r="1" gradientTransform="matrix(-355.834 659.368 -100.788 -41.7727 218.221 798.251)" gradientUnits="userSpaceOnUse">
<stop stop-color="white"/>
<stop offset="1" stop-color="#999999" stop-opacity="0"/>
</radialGradient>
<radialGradient id="paint17_radial_1148_16" cx="0" cy="0" r="1" gradientTransform="matrix(-355.834 659.368 -100.788 -41.7727 288.221 753.251)" gradientUnits="userSpaceOnUse">
<stop stop-color="white"/>
<stop offset="1" stop-color="#999999" stop-opacity="0"/>
</radialGradient>
<radialGradient id="paint18_radial_1148_16" cx="0" cy="0" r="1" gradientTransform="matrix(-353.239 661.974 -194.121 -102.546 48.7555 792.729)" gradientUnits="userSpaceOnUse">
<stop stop-color="white"/>
<stop offset="1" stop-color="#999999" stop-opacity="0"/>
</radialGradient>
<radialGradient id="paint19_radial_1148_16" cx="0" cy="0" r="1" gradientTransform="matrix(-355.834 659.368 -100.788 -41.7727 60.4788 849.638)" gradientUnits="userSpaceOnUse">
<stop stop-color="white"/>
<stop offset="1" stop-color="#999999" stop-opacity="0"/>
</radialGradient>
<radialGradient id="paint20_radial_1148_16" cx="0" cy="0" r="1" gradientTransform="matrix(-355.834 659.368 -100.788 -41.7727 -16.5212 809.247)" gradientUnits="userSpaceOnUse">
<stop stop-color="white"/>
<stop offset="1" stop-color="#999999" stop-opacity="0"/>
</radialGradient>
<radialGradient id="paint21_radial_1148_16" cx="0" cy="0" r="1" gradientTransform="matrix(-371.604 650.61 -99.7532 -44.1869 -58.213 822.448)" gradientUnits="userSpaceOnUse">
<stop stop-color="white"/>
<stop offset="1" stop-color="#999999" stop-opacity="0"/>
</radialGradient>
<radialGradient id="paint22_radial_1148_16" cx="0" cy="0" r="1" gradientTransform="matrix(-393.431 875.666 -243.463 -106.081 301.052 701.804)" gradientUnits="userSpaceOnUse">
<stop stop-color="white"/>
<stop offset="1" stop-color="#999999" stop-opacity="0"/>
</radialGradient>
<linearGradient id="paint23_linear_1148_16" x1="308.108" y1="623.784" x2="347.608" y2="517.284" gradientUnits="userSpaceOnUse">
<stop stop-color="white" stop-opacity="0"/>
<stop offset="1" stop-color="#F8F8F8"/>
</linearGradient>
<radialGradient id="paint24_radial_1148_16" cx="0" cy="0" r="1" gradientTransform="matrix(-393.431 875.666 -243.463 -106.081 501.948 716.21)" gradientUnits="userSpaceOnUse">
<stop stop-color="white"/>
<stop offset="1" stop-color="#999999" stop-opacity="0"/>
</radialGradient>
<linearGradient id="paint25_linear_1148_16" x1="509.005" y1="638.189" x2="548.505" y2="531.689" gradientUnits="userSpaceOnUse">
<stop stop-color="white" stop-opacity="0"/>
<stop offset="1" stop-color="#F8F8F8"/>
</linearGradient>
<linearGradient id="paint26_linear_1148_16" x1="365.509" y1="1119.55" x2="411.929" y2="712.477" gradientUnits="userSpaceOnUse">
<stop stop-color="#057FFD"/>
<stop offset="1" stop-color="#034C97" stop-opacity="0"/>
</linearGradient>
<linearGradient id="paint27_linear_1148_16" x1="369.625" y1="1070.08" x2="396.712" y2="756.974" gradientUnits="userSpaceOnUse">
<stop stop-color="#003062"/>
<stop offset="1" stop-color="#034C97" stop-opacity="0"/>
</linearGradient>
<clipPath id="clip0_1148_16">
<rect width="30" height="20" fill="white" transform="translate(41 334)"/>
</clipPath>
<clipPath id="clip1_1148_16">
<rect width="46" height="30" fill="white" transform="translate(355 146)"/>
</clipPath>
<clipPath id="clip2_1148_16">
<rect width="103" height="69" fill="white" transform="translate(404 257)"/>
</clipPath>
<clipPath id="clip3_1148_16">
<rect width="91" height="61" fill="white" transform="translate(63 161)"/>
</clipPath>
<clipPath id="clip4_1148_16">
<path d="M0 590H585V864C585 875.046 576.046 884 565 884H20C8.9543 884 0 875.046 0 864V590Z" fill="white"/>
</clipPath>
</defs>
</svg>
