<svg width="190" height="178" viewBox="0 0 190 178" fill="none" xmlns="http://www.w3.org/2000/svg">
<g opacity="0.95">
<path d="M70.0802 177.712V154.277L81.147 152.324V168.598H90.9117C96.1196 168.598 98.7235 174.674 99.3745 177.712H70.0802Z" fill="#FA7325"/>
<path d="M132.585 93.4697C126.709 104.828 99.0477 108.019 74.8462 110.203C63.9667 110.609 45.6627 108.929 44.9595 90.0547C44.0076 64.5032 88.8388 72.1963 119.532 68.7233C143.534 66.0074 144.367 48.389 152.853 43.0324C149.135 53.9714 139.876 79.3734 132.585 93.4697Z" fill="black"/>
<path d="M60.9664 35.1467C75.0276 14.836 93.2986 25.8159 100.676 33.8447C103.28 35.1467 106.318 54.2422 107.186 64.4409L108.488 69.6488L113.696 76.1586C113.696 76.1586 119.555 85.2724 122.159 92.4332C134.137 144.512 82.0149 155.796 54.4566 154.928H0C11.1272 143.044 3.5 112.077 20 92.4332C30 82.6685 52.8875 82.93 54.4566 82.6685C57.5813 82.1477 58.7964 78.5456 59.0134 76.8096C58.3624 68.9978 57.0605 52.593 57.0605 49.4683C57.0605 45.5624 58.3625 39.7036 60.9664 35.1467Z" fill="#40446A"/>
<path d="M36.2293 177.712V155.579V154.928H47.296V168.598H57.7118C63.9612 168.598 65.9576 174.674 66.1746 177.712H36.2293Z" fill="#F87426"/>
<path d="M157.532 107.578C154.839 120.079 123.606 136.33 102.137 133.579C86.1218 129.606 62.0544 118.119 56.4289 100.089C48.8134 75.6801 94.8989 91.1182 123.609 79.7222C146.06 70.8107 157.088 60.9851 163.873 53.5916C163.152 65.1227 160.875 92.0634 157.532 107.578Z" fill="#050E1F"/>
<path d="M97.5369 105.769C74.1384 114.944 69.7898 112.676 63.1199 112.567C49.3075 91.6872 55.997 89.193 66.7151 85.1968L66.8299 85.1539L102.862 84.3048L136.462 74.062C139.274 72.8337 146.658 67.4589 150.759 64.7034C155.885 61.259 161.398 54.3303 162.933 52.5548C164.188 52.2077 162.827 54.6106 163 55.2381C161.196 74.109 151.49 84.3139 143.832 87.5582C138.15 89.8056 120.935 96.5941 97.5369 105.769Z" fill="#01176C"/>
<path d="M92.587 40.1933C93.3022 42.3857 93.2506 44.8379 92.257 47.1184C90.1029 52.0624 84.3486 54.3236 79.4046 52.1695C74.9172 50.2144 72.6401 45.2939 73.8683 40.7048L92.587 40.1933Z" fill="#DEE2FA"/>
<path d="M126.332 61.8371C134.664 59.2332 143.257 64.2241 146.512 67.045C149.116 47.5157 138.049 41.6565 126.332 39.7035C116.958 38.1411 104.582 34.2786 100.025 33.1937C100.676 33.8446 104.589 38.4015 100.943 48.8173C97.2978 59.233 100.726 63.5729 102.896 64.4409C107.236 64.6579 117.999 64.4411 126.332 61.8371Z" fill="#FF9531"/>
<path d="M134.527 54.3122C143.381 54.833 145.811 62.7044 146.245 67.0443C144.726 65.5253 140.777 63.1654 134.527 62.1238C128.278 61.0822 118.253 64.4404 107.186 64.4404H102.629C102.629 64.4404 99.3743 62.1238 99.3743 59.2324C99.3743 56.341 99.3743 54.0238 100.025 54.0246C100.676 54.0253 125.674 53.7914 134.527 54.3122Z" fill="#F97526"/>
<path d="M89.3316 40.1631C89.5569 40.5546 89.7423 40.9777 89.8759 41.4299C90.7924 44.533 89.0193 47.7916 85.9163 48.7083C82.8133 49.6247 79.555 47.8524 78.6382 44.7496C78.1976 43.258 78.3792 41.7307 79.0303 40.4445L89.3316 40.1631Z" fill="#000944"/>
<path d="M61.7843 41.1503C75.5201 36.4211 89.9676 37.1295 95.4741 38.0753C90.7578 41.5522 89.5558 41.5353 61.8516 41.1501L61.7843 41.1503Z" fill="black"/>
</g>
<g opacity="0.95" filter="url(#filter0_d_1076_51)">
<path d="M167.148 5.60001L168.881 20.3929L183.485 23.3159L169.952 29.5355L171.685 44.3284L161.588 33.3794L148.055 39.599L155.348 26.6126L145.25 15.6636L159.855 18.5865L167.148 5.60001Z" fill="#FFE359"/>
</g>
<defs>
<filter id="filter0_d_1076_51" x="139.65" y="3.67165e-05" width="49.4351" height="49.9284" filterUnits="userSpaceOnUse" color-interpolation-filters="sRGB">
<feFlood flood-opacity="0" result="BackgroundImageFix"/>
<feColorMatrix in="SourceAlpha" type="matrix" values="0 0 0 0 0 0 0 0 0 0 0 0 0 0 0 0 0 0 127 0" result="hardAlpha"/>
<feOffset/>
<feGaussianBlur stdDeviation="2.8"/>
<feComposite in2="hardAlpha" operator="out"/>
<feColorMatrix type="matrix" values="0 0 0 0 1 0 0 0 0 0.890196 0 0 0 0 0.34902 0 0 0 1 0"/>
<feBlend mode="normal" in2="BackgroundImageFix" result="effect1_dropShadow_1076_51"/>
<feBlend mode="normal" in="SourceGraphic" in2="effect1_dropShadow_1076_51" result="shape"/>
</filter>
</defs>
</svg>
