<svg width="1760" height="2137" viewBox="0 0 1760 2137" fill="none" xmlns="http://www.w3.org/2000/svg">
<mask id="mask0_1064_49" style="mask-type:alpha" maskUnits="userSpaceOnUse" x="0" y="0" width="1760" height="2137">
<rect width="1760" height="2137" fill="#D9D9D9"/>
</mask>
<g mask="url(#mask0_1064_49)">
<path d="M-12.2521 85.5296C-12.2521 84.743 -11.9188 84.0866 -11.1967 83.7745C4.28841 77.0804 189.88 0 525.477 0C735.018 0 792.361 122.476 1391.51 84.2372C1609.46 76.3866 1700.86 124.54 1710.87 130.242C1711.47 130.585 1711.81 131.211 1711.81 131.904V268.995C1711.81 270.102 1710.91 270.998 1709.8 270.995L-10.2567 267.125C-11.3595 267.123 -12.2521 266.228 -12.2521 265.125V85.5296Z" fill="url(#paint0_linear_1064_49)"/>
<path d="M-16 0H1759V382H-16V0Z" fill="url(#paint1_linear_1064_49)"/>
<path d="M-12 37.4096C-12 35.9472 -10.5599 34.9159 -9.20819 35.4739C16.1324 45.935 214.877 119.002 623.667 25.962C836.599 -22.5013 1202.02 44.1954 1404.28 48.0856C1602.17 51.8918 1736.69 13.7544 1756.47 7.78065C1757.77 7.38837 1759 8.39003 1759 9.74713V329C1759 330.105 1758.1 331 1757 331H-10C-11.1046 331 -12 330.105 -12 329V37.4096Z" fill="url(#paint2_linear_1064_49)" fill-opacity="0.48"/>
<path d="M-12.2602 489C-13.3647 489 -14.2601 488.105 -14.2601 487V246.58C-14.2601 244.838 -12.269 243.798 -10.9432 244.926C13.9606 266.129 176.416 394.663 385.325 330.696C900.933 119.406 900.202 277.182 1255.92 317.429C1614.31 357.978 1734.39 282.59 1755.45 266.511C1756.85 265.441 1759 266.514 1759 268.276V487C1759 488.105 1758.1 489 1757 489H-12.2602Z" fill="url(#paint3_linear_1064_49)"/>
<path d="M-14.7344 73.4438C-14.7602 71.0655 -17.2642 70.7279 -17.5244 73.092C-24.6582 137.922 -21.8195 356.552 379.644 186.073C846.766 -12.2883 1168.73 186.499 1250.3 214.255C1328.51 240.87 1724.44 169.605 1756.89 163.697C1758.11 163.473 1759 164.463 1759 165.712V351C1759 352.105 1758.1 353 1757 353H-9.71481C-10.8109 353 -11.7028 352.118 -11.7147 351.022L-14.7344 73.4438Z" fill="url(#paint4_radial_1064_49)" fill-opacity="0.51"/>
<path d="M-10.8266 353C-11.9311 353 -12.8266 352.105 -12.8266 351V203.054C-12.8266 202.851 -12.8509 202.679 -12.8892 202.48C-13.7016 198.254 -17.5816 145.138 292.93 120.037C293.222 120.013 293.54 120.057 293.815 120.159C703.55 272.89 870.345 52.6984 1214.98 201.195C1362.84 264.909 1727.03 230.513 1757.03 227.546C1758.21 227.429 1759 228.379 1759 229.565L1759 351C1759 352.105 1758.1 353 1757 353H-10.8266Z" fill="url(#paint5_linear_1064_49)" fill-opacity="0.41"/>
<path d="M-15.9767 630C-17.0813 630 -17.9767 629.105 -17.9767 628V316.745C-17.9767 314.39 -19.8665 314.224 -19.9468 316.578C-21.1186 350.938 -4.39664 423.553 177.197 353.01C701.5 80.4268 689.664 414.711 1062.47 335.895C1574.16 227.718 1745.58 330.455 1758.23 338.677C1758.78 339.031 1759 339.577 1759 340.227V628C1759 629.105 1758.1 630 1757 630H-15.9767Z" fill="url(#paint6_linear_1064_49)" fill-opacity="0.99"/>
<path d="M3.73169 685C-7.314 685 -16.2683 676.046 -16.2683 665V576.095C-16.2683 569.556 -13.2142 563.536 -7.66824 560.072C37.5231 531.846 254.218 410.413 484.975 517.328C662.027 590.989 892.486 468.669 1250.58 508.663C1496.72 536.152 1625.93 490.522 1689.18 450.912C1706.4 440.131 1742.93 455.288 1742.93 475.602V665C1742.93 676.046 1733.98 685 1722.93 685H3.73169Z" fill="#0A76D9"/>
<path d="M-8.99996 726C-20.0457 726 -29 717.046 -29 706V594.613C-29 588.58 -26.3933 582.967 -21.5268 579.402C21.468 547.911 243.675 400.548 480.449 528.005C660.399 614.987 894.63 470.545 1258.59 517.772C1505.11 549.76 1636.23 497.903 1701.51 451.626C1718.64 439.487 1759 454.791 1759 475.782V706C1759 717.046 1750.05 726 1739 726H-8.99996Z" fill="#0A76D9"/>
<path d="M0.0284767 1011.62C-10.5385 1010.99 -18.7867 1002.24 -18.7867 991.652V690.729C-18.7867 679.684 -9.95779 670.729 1.0879 670.729C65.9989 670.729 279.093 670.729 478.759 670.729C717.9 670.729 784.044 601.184 1174.87 643.845C1548.14 684.592 1687.97 689.793 1736.09 689.659C1748.26 689.625 1759 699.737 1759 711.908V1094.78C1759 1106.29 1749.31 1115.42 1737.82 1114.74L0.0284767 1011.62Z" fill="#2642D9"/>
<path d="M-24.9666 1131C-26.0712 1131 -26.9666 1130.1 -26.9666 1129V817.667C-26.9666 815.313 -28.861 815.143 -28.9438 817.495C-30.1512 851.821 -13.4639 924.61 169.194 854.01C696.15 581.427 684.254 915.711 1058.95 836.895C1573.23 728.717 1745.51 831.457 1758.23 839.678C1758.77 840.031 1759 840.579 1759 841.23V1129C1759 1130.1 1758.1 1131 1757 1131H-24.9666Z" fill="#232691"/>
<path d="M-35.954 1324C-37.0585 1324 -37.954 1323.1 -37.954 1322V1010.57C-37.954 1008.22 -39.854 1008.05 -39.9397 1010.4C-41.1904 1044.68 -24.5458 1117.68 159.414 1047.01C689.611 774.427 677.642 1108.71 1054.64 1029.89C1572.09 921.715 1745.43 1024.46 1758.22 1032.68C1758.77 1033.03 1759 1033.58 1759 1034.23V1322C1759 1323.1 1758.1 1324 1757 1324H-35.954Z" fill="#232691"/>
<path d="M-24 1541.37C-25.1046 1541.37 -26 1540.48 -26 1539.37V1214.18C-26 1212.93 -25.0166 1211.95 -23.7806 1212.17C2.52538 1216.91 256.702 1259.71 418.166 1176.26C699.004 1055.94 837.868 1218.37 1218.4 1176.26C1724.22 1120.29 1757.74 1246.14 1758.69 1250.21C1758.72 1250.33 1758.71 1250.37 1758.71 1250.51V1539.37C1758.71 1540.48 1757.82 1541.37 1756.71 1541.37H-24Z" fill="#181A4C"/>
<path d="M-33.4496 1726C-34.5542 1726 -35.4496 1725.1 -35.4496 1724V1400.1C-35.4496 1398.63 -33.9369 1397.63 -32.5917 1398.23C-16.0375 1405.69 67.6726 1440.67 92.5025 1397.7C92.7853 1397.21 93.2942 1396.83 93.8442 1396.7C524.018 1294.46 416.678 1277.61 1055.62 1432.1C1433.42 1523.45 1727.35 1444.47 1756.6 1436.1C1757.9 1435.73 1759 1436.75 1759 1438.1V1724C1759 1725.1 1758.1 1726 1757 1726H-33.4496Z" fill="#030538"/>
<path d="M-33.4496 1950C-34.5542 1950 -35.4496 1949.1 -35.4496 1948V1623.28C-35.4496 1622.04 -34.367 1621.1 -33.1464 1621.29C-18.0878 1623.63 66.5222 1635.93 92.7001 1621.06C92.8712 1620.96 93.0569 1620.89 93.2483 1620.85C524.109 1518.54 398.242 1618.03 1055.62 1656.11C1523.37 1683.2 1733.54 1662.23 1756.81 1659.65C1758 1659.52 1759 1660.46 1759 1661.66V1948C1759 1949.1 1758.1 1950 1757 1950H-33.4496Z" fill="#01022F"/>
<path d="M-26.0001 2137C-27.1047 2137 -28.0001 2136.1 -28.0001 2135V1811.38C-28.0001 1809.86 -26.5695 1808.78 -25.2286 1809.5C7.77248 1827.19 327.892 1994.41 525.846 1931.93C826.461 1794.06 815.536 1791.46 1470.47 1829.53C1935.55 1856.56 1781.9 1847.76 1761.45 1846.59C1760.31 1846.53 1759.36 1847.44 1759.36 1848.59V2135C1759.36 2136.1 1758.47 2137 1757.36 2137H-26.0001Z" fill="#010118"/>
</g>
<defs>
<linearGradient id="paint0_linear_1064_49" x1="866.247" y1="1239.42" x2="866.248" y2="7849.07" gradientUnits="userSpaceOnUse">
<stop stop-color="#6AD5F7"/>
<stop offset="1" stop-color="white" stop-opacity="0"/>
</linearGradient>
<linearGradient id="paint1_linear_1064_49" x1="635.513" y1="97.4047" x2="635.514" y2="1440.41" gradientUnits="userSpaceOnUse">
<stop stop-color="#F7F7F7"/>
<stop offset="1" stop-color="#BDF6FE"/>
</linearGradient>
<linearGradient id="paint2_linear_1064_49" x1="888.138" y1="646.843" x2="888.138" y2="6178.55" gradientUnits="userSpaceOnUse">
<stop stop-color="#B9F3FE"/>
<stop offset="1" stop-color="white" stop-opacity="0"/>
</linearGradient>
<linearGradient id="paint3_linear_1064_49" x1="919.88" y1="732.29" x2="-808.354" y2="8479.57" gradientUnits="userSpaceOnUse">
<stop stop-color="#065AD0"/>
<stop offset="1" stop-color="white" stop-opacity="0"/>
</linearGradient>
<radialGradient id="paint4_radial_1064_49" cx="0" cy="0" r="1" gradientUnits="userSpaceOnUse" gradientTransform="translate(884.785 1073.27) scale(913.837 1063.73)">
<stop stop-color="#6BD5F7"/>
<stop offset="1" stop-color="#47ABCB"/>
</radialGradient>
<linearGradient id="paint5_linear_1064_49" x1="881.806" y1="1268.65" x2="319.493" y2="3501.22" gradientUnits="userSpaceOnUse">
<stop stop-color="#57CAFF"/>
<stop offset="1" stop-color="white" stop-opacity="0"/>
</linearGradient>
<linearGradient id="paint6_linear_1064_49" x1="871.714" y1="950.084" x2="453.33" y2="3435.65" gradientUnits="userSpaceOnUse">
<stop stop-color="#008FF9"/>
<stop offset="1" stop-color="#0C5890"/>
</linearGradient>
</defs>
</svg>
