<svg width="1728" height="870" viewBox="0 0 1728 870" fill="none" xmlns="http://www.w3.org/2000/svg">
<g opacity="0.5">
<path d="M0.739868 548C-0.364746 548 -1.26013 547.105 -1.26013 546V305.58C-1.26013 303.838 0.731079 302.798 2.05688 303.926C26.9607 325.129 189.416 453.663 398.325 389.696C913.933 178.406 913.202 336.182 1268.92 376.429C1627.31 416.978 1747.39 341.59 1768.45 325.511C1769.85 324.441 1772 325.514 1772 327.276V546C1772 547.105 1771.1 548 1770 548H0.739868Z" fill="url(#paint0_linear_1551_1088)"/>
<path d="M-3.06352 17.5968C-3.08918 15.2162 -5.59078 14.8811 -5.84736 17.248C-12.8962 82.2719 -9.7689 300.416 387.811 130.073C850.787 -68.2883 1169.89 130.499 1250.74 158.255C1328.24 184.864 1720.5 113.637 1752.8 107.701C1754.04 107.475 1754.92 108.465 1754.92 109.716V295C1754.92 296.105 1754.03 297 1752.92 297H1.9275C0.831343 297 -0.060503 296.118 -0.0723209 295.022L-3.06352 17.5968Z" fill="url(#paint1_linear_1551_1088)"/>
<path d="M-2.99487 540C-4.09949 540 -4.99487 539.105 -4.99487 538V226.884C-4.99487 224.527 -6.87634 224.368 -6.95227 226.725C-8.0614 261.144 8.72083 333.453 188.447 263.01C708.099 -9.57321 696.369 324.711 1065.87 245.895C1573 137.72 1742.91 240.451 1755.46 248.677C1756 249.031 1756.22 249.575 1756.22 250.221V538C1756.22 539.105 1755.32 540 1754.22 540H-2.99487Z" fill="url(#paint2_linear_1551_1088)"/>
<path d="M15.7312 629C4.68542 629 -4.26892 620.046 -4.26892 609V520.095C-4.26892 513.556 -1.21472 507.536 4.33118 504.072C49.5226 475.846 266.217 354.413 496.974 461.328C674.027 534.989 904.486 412.669 1262.58 452.662C1508.72 480.152 1637.93 434.522 1701.18 394.912C1718.4 384.131 1754.93 399.288 1754.93 419.602V609C1754.93 620.046 1745.98 629 1734.93 629H15.7312Z" fill="url(#paint3_linear_1551_1088)"/>
<path d="M2.00073 640C-9.04504 640 -17.9994 631.046 -17.9994 620V508.515C-17.9994 502.539 -15.4407 496.971 -10.6466 493.403C31.6555 461.911 250.284 314.548 483.244 442.005C660.296 528.987 890.755 384.545 1248.85 431.772C1489.47 463.505 1618.35 412.723 1683.1 366.732C1700.27 354.535 1741.2 369.927 1741.2 390.989V620C1741.2 631.046 1732.25 640 1721.2 640H2.00073Z" fill="url(#paint4_linear_1551_1088)"/>
<path d="M3.58508 970.178C-3.46106 969.758 -9.76379 965.654 -12.999 959.381L-167.957 658.896C-174.821 645.585 -165.355 629.729 -150.378 629.729C-45.3854 629.729 288.485 629.729 486.953 629.729C724.743 629.729 790.512 560.184 1179.13 602.845C1523.03 640.599 1667.65 631.101 1725.1 621.095C1740.64 618.388 1759.96 632.113 1759.96 647.884V1053.77C1759.96 1065.29 1750.26 1074.42 1738.77 1073.74L3.58508 970.178Z" fill="url(#paint5_linear_1551_1088)"/>
<path d="M-13.3152 1075C-14.4198 1075 -15.3152 1074.1 -15.3152 1073V761.884C-15.3152 759.527 -17.1967 759.368 -17.2726 761.725C-18.3817 796.144 -1.59949 868.453 178.127 798.01C697.779 525.427 686.048 859.711 1055.55 780.895C1562.68 672.72 1732.59 775.451 1745.14 783.677C1745.68 784.031 1745.9 784.575 1745.9 785.221V1073C1745.9 1074.1 1745 1075 1743.9 1075H-13.3152Z" fill="url(#paint6_linear_1551_1088)"/>
</g>
<defs>
<linearGradient id="paint0_linear_1551_1088" x1="885.37" y1="282" x2="885.37" y2="548" gradientUnits="userSpaceOnUse">
<stop stop-color="#90BEFF"/>
<stop offset="1" stop-color="#96DFFF"/>
</linearGradient>
<linearGradient id="paint1_linear_1551_1088" x1="873.814" y1="0" x2="873.814" y2="297" gradientUnits="userSpaceOnUse">
<stop stop-color="#90BEFF"/>
<stop offset="1" stop-color="#96DFFF"/>
</linearGradient>
<linearGradient id="paint2_linear_1551_1088" x1="874.609" y1="154" x2="874.609" y2="540" gradientUnits="userSpaceOnUse">
<stop stop-color="#90BEFF"/>
<stop offset="1" stop-color="#96DFFF"/>
</linearGradient>
<linearGradient id="paint3_linear_1551_1088" x1="875.332" y1="347" x2="875.332" y2="629" gradientUnits="userSpaceOnUse">
<stop stop-color="#90BEFF"/>
<stop offset="1" stop-color="#96DFFF"/>
</linearGradient>
<linearGradient id="paint4_linear_1551_1088" x1="861.602" y1="307" x2="861.602" y2="640" gradientUnits="userSpaceOnUse">
<stop stop-color="#90BEFF"/>
<stop offset="1" stop-color="#96DFFF"/>
</linearGradient>
<linearGradient id="paint5_linear_1551_1088" x1="788.48" y1="589" x2="788.48" y2="1075" gradientUnits="userSpaceOnUse">
<stop stop-color="#90BEFF"/>
<stop offset="1" stop-color="#96DFFF"/>
</linearGradient>
<linearGradient id="paint6_linear_1551_1088" x1="864.289" y1="689" x2="864.289" y2="1075" gradientUnits="userSpaceOnUse">
<stop stop-color="#90BEFF"/>
<stop offset="1" stop-color="#96DFFF"/>
</linearGradient>
</defs>
</svg>
