<svg width="1728" height="856" viewBox="0 0 1728 856" fill="none" xmlns="http://www.w3.org/2000/svg">
<path d="M1.73987 548C0.635254 548 -0.260132 547.105 -0.260132 546V305.58C-0.260132 303.838 1.73108 302.798 3.05688 303.926C27.9607 325.129 190.416 453.663 399.325 389.696C914.933 178.406 914.202 336.182 1269.92 376.429C1628.31 416.978 1748.39 341.59 1769.45 325.511C1770.85 324.441 1773 325.514 1773 327.276V546C1773 547.105 1772.1 548 1771 548H1.73987Z" fill="url(#paint0_linear_1510_8)"/>
<path d="M-2.06352 17.5968C-2.08918 15.2162 -4.59078 14.8811 -4.84736 17.248C-11.8962 82.2719 -8.7689 300.416 388.811 130.073C851.787 -68.2883 1170.89 130.499 1251.74 158.255C1329.24 184.864 1721.5 113.637 1753.8 107.701C1755.04 107.475 1755.92 108.465 1755.92 109.716V295C1755.92 296.105 1755.03 297 1753.92 297H2.9275C1.83134 297 0.939497 296.118 0.927679 295.022L-2.06352 17.5968Z" fill="url(#paint1_linear_1510_8)"/>
<path d="M-1.99487 540C-3.09949 540 -3.99487 539.105 -3.99487 538V226.884C-3.99487 224.527 -5.87634 224.368 -5.95227 226.725C-7.0614 261.144 9.72083 333.453 189.447 263.01C709.099 -9.57321 697.369 324.711 1066.87 245.895C1574 137.72 1743.91 240.451 1756.46 248.677C1757 249.031 1757.22 249.575 1757.22 250.221V538C1757.22 539.105 1756.32 540 1755.22 540H-1.99487Z" fill="url(#paint2_linear_1510_8)"/>
<path d="M16.7312 629C5.68542 629 -3.26892 620.046 -3.26892 609V520.095C-3.26892 513.556 -0.214722 507.536 5.33118 504.072C50.5226 475.846 267.217 354.413 497.974 461.328C675.027 534.989 905.486 412.669 1263.58 452.662C1509.72 480.152 1638.93 434.522 1702.18 394.912C1719.4 384.131 1755.93 399.288 1755.93 419.602V609C1755.93 620.046 1746.98 629 1735.93 629H16.7312Z" fill="url(#paint3_linear_1510_8)"/>
<path d="M2.9967 640C-8.04895 640 -17.0033 631.046 -17.0033 620V508.515C-17.0033 502.539 -14.4446 496.971 -9.65051 493.403C32.6515 461.911 251.28 314.548 484.24 442.005C661.292 528.987 891.751 384.545 1249.85 431.772C1490.47 463.505 1619.34 412.723 1684.09 366.732C1701.26 354.535 1742.2 369.927 1742.2 390.989V620C1742.2 631.046 1733.24 640 1722.2 640H2.9967Z" fill="url(#paint4_linear_1510_8)"/>
<path d="M4.58118 970.178C-2.46497 969.758 -8.7677 965.654 -12.0029 959.381L-166.961 658.896C-173.825 645.585 -164.359 629.729 -149.382 629.729C-44.3893 629.729 289.481 629.729 487.949 629.729C725.739 629.729 791.508 560.184 1180.12 602.845C1524.03 640.599 1668.65 631.101 1726.09 621.095C1741.63 618.388 1760.95 632.113 1760.95 647.884V1053.77C1760.95 1065.29 1751.26 1074.42 1739.76 1073.74L4.58118 970.178Z" fill="url(#paint5_linear_1510_8)"/>
<path d="M-12.3152 1075C-13.4198 1075 -14.3152 1074.1 -14.3152 1073V761.884C-14.3152 759.527 -16.1967 759.368 -16.2726 761.725C-17.3817 796.144 -0.599487 868.453 179.127 798.01C698.779 525.427 687.048 859.711 1056.55 780.895C1563.68 672.72 1733.59 775.451 1746.14 783.677C1746.68 784.031 1746.9 784.575 1746.9 785.221V1073C1746.9 1074.1 1746 1075 1744.9 1075H-12.3152Z" fill="url(#paint6_linear_1510_8)"/>
<defs>
<linearGradient id="paint0_linear_1510_8" x1="779.908" y1="284.729" x2="788.074" y2="454.464" gradientUnits="userSpaceOnUse">
<stop stop-color="#4000E3"/>
<stop offset="1" stop-color="#2C0067"/>
</linearGradient>
<linearGradient id="paint1_linear_1510_8" x1="980.613" y1="3.04757" x2="970.375" y2="192.448" gradientUnits="userSpaceOnUse">
<stop stop-color="#4000E3"/>
<stop offset="1" stop-color="#2C0067"/>
</linearGradient>
<linearGradient id="paint2_linear_1510_8" x1="769.751" y1="157.961" x2="786.999" y2="403.626" gradientUnits="userSpaceOnUse">
<stop stop-color="#4000E3"/>
<stop offset="1" stop-color="#2C0067"/>
</linearGradient>
<linearGradient id="paint3_linear_1510_8" x1="770.715" y1="349.894" x2="779.963" y2="529.779" gradientUnits="userSpaceOnUse">
<stop stop-color="#4000E3"/>
<stop offset="1" stop-color="#2C0067"/>
</linearGradient>
<linearGradient id="paint4_linear_1510_8" x1="756.98" y1="310.417" x2="769.863" y2="522.614" gradientUnits="userSpaceOnUse">
<stop stop-color="#4000E3"/>
<stop offset="1" stop-color="#2C0067"/>
</linearGradient>
<linearGradient id="paint5_linear_1510_8" x1="672.826" y1="593.987" x2="697.603" y2="902.833" gradientUnits="userSpaceOnUse">
<stop stop-color="#4000E3"/>
<stop offset="1" stop-color="#2C0067"/>
</linearGradient>
<linearGradient id="paint6_linear_1510_8" x1="759.43" y1="692.961" x2="776.679" y2="938.626" gradientUnits="userSpaceOnUse">
<stop stop-color="#4000E3"/>
<stop offset="1" stop-color="#2C0067"/>
</linearGradient>
</defs>
</svg>
